<?xml version="1.0" encoding="utf-8"?>
<!-- Generator: Adobe Illustrator 16.0.3, SVG Export Plug-In . SVG Version: 6.00 Build 0)  -->
<!DOCTYPE svg PUBLIC "-//W3C//DTD SVG 1.1//EN" "http://www.w3.org/Graphics/SVG/1.1/DTD/svg11.dtd">
<svg version="1.1" id="Capa_1" xmlns="http://www.w3.org/2000/svg" xmlns:xlink="http://www.w3.org/1999/xlink" x="0px" y="0px"
	 width="1920px" height="1920px" viewBox="0 0 1920 1920" enable-background="new 0 0 1920 1920" xml:space="preserve">
<path fill-rule="evenodd" clip-rule="evenodd" fill="#C6AD5E" d="M1459.052,527.004c0.224,58.723-3.786,112.327-11.633,165.606
	c-5.82,39.521-14.151,78.545-24.813,117.089c-10.381,37.526-22.994,74.265-38.157,110.079
	c-18.068,42.674-39.473,83.652-64.313,122.835c-26.548,41.879-56.577,81.061-90.02,117.633
	c-28.506,31.174-59.227,60.019-91.885,86.812c-42.311,34.712-87.368,65.438-134.766,92.738c-8.3,4.78-16.146,10.644-25.563,13.202
	c-13.336,3.625-25.504,0.434-37.248-6.394c-31.991-18.596-63.481-37.94-93.657-59.405c-48.9-34.785-94.303-73.602-135.49-117.262
	c-37.08-39.307-70.147-81.74-99.075-127.434c-17.521-27.676-33.322-56.28-47.595-85.711c-14.279-29.446-26.567-59.775-37.381-90.66
	c-7.52-21.479-14.24-43.247-19.987-65.262c-7.141-27.351-13.071-54.975-17.992-82.845c-6.869-38.904-11.326-78.047-13.819-117.438
	c-2.4-37.933-2.75-75.914-1.212-113.873c1.436-35.439,4.348-70.768,9.077-105.962c4.457-33.171,10.167-66.082,17.866-98.638
	c2.978-12.592,6.723-25,9.938-37.54c1.035-4.038,2.629-4.489,6.234-2.538c18.987,10.277,37.892,20.726,58.136,28.466
	c23.78,9.092,48.054,16.382,72.938,21.885c27.057,5.984,54.369,9.628,82.005,10.899c29.353,1.349,58.536-0.324,87.618-4.792
	c28.05-4.309,55.347-11.396,81.988-20.973c16.229-5.834,31.938-12.983,47.444-20.585c12.361-6.06,24.914-6.095,37.424,0.139
	c30.002,14.952,61.213,26.795,93.818,34.549c49.648,11.808,99.907,15.02,150.731,9.583c35.709-3.82,70.49-11.494,104.652-22.547
	c28.271-9.147,54.706-22.144,80.556-36.482c4.371-2.424,5.649-1.102,6.705,2.924c7.466,28.471,15.075,56.927,20.034,85.958
	c7.123,41.706,12.366,83.64,14.881,125.927C1457.977,481.933,1459.138,506.857,1459.052,527.004z M1430.085,515.401
	c-0.556-21.488-1.28-42.963-2.774-64.403c-2.326-33.406-6.035-66.661-11.441-99.707c-3.604-22.022-7.726-43.951-13.168-65.615
	c-0.921-3.668-2.324-4.042-5.49-2.488c-15.092,7.405-30.695,13.582-46.555,19.14c-21.709,7.609-43.864,13.667-66.375,18.262
	c-22.526,4.599-45.282,7.698-68.269,9.261c-22.486,1.53-44.914,1.55-67.391,0.063c-30.689-2.031-60.86-7.171-90.478-15.28
	c-29.102-7.968-57.14-18.887-84.151-32.368c-4.832-2.412-9.702-2.509-14.394-0.16c-36.043,18.051-73.748,31.223-113.245,39.376
	c-28.975,5.98-58.234,9.115-87.782,9.596c-46.082,0.751-91.417-5.141-135.968-16.632c-29.19-7.529-57.655-17.351-84.876-30.501
	c-5.583-2.697-6.227-2.35-7.598,3.672c-3.5,15.376-6.871,30.776-9.692,46.299c-3.57,19.64-6.503,39.377-8.909,59.18
	c-2.065,16.992-3.604,34.046-5.041,51.116c-1.984,23.576-2.948,47.188-3.332,70.799c-0.658,40.46,1.043,80.852,5.172,121.149
	c1.457,14.217,2.891,28.451,4.905,42.574c3.935,27.591,8.897,55.02,15.197,82.201c5.515,23.793,11.782,47.384,19.092,70.664
	c7.554,24.055,16.131,47.791,25.909,71.042c21.563,51.272,47.63,100.104,78.922,146.175c33.595,49.459,72.201,94.585,115.62,135.598
	c55.363,52.295,116.873,96.213,182.829,134.163c10.842,6.238,18.955,6.903,30.346,0.27c39.833-23.201,78.419-48.15,114.997-76.174
	c45.263-34.677,86.779-73.394,124.326-116.336c35.22-40.281,66.15-83.627,92.743-130.057c17.519-30.587,32.992-62.167,46.488-94.747
	c9.227-22.271,17.588-44.849,24.939-67.782c8.626-26.908,15.849-54.218,21.957-81.815c4.784-21.613,8.86-43.375,12.082-65.257
	c2.81-19.082,5.02-38.26,6.8-57.494C1428.987,591.32,1430.09,553.386,1430.085,515.401z"/>
<path fill-rule="evenodd" clip-rule="evenodd" fill="#C6AD5E" d="M529.971,1183.873c37.799-1.066,74.12,4.578,109.651,14.701
	c56.664,16.144,107.259,44.071,152.942,81.125c28.444,23.072,53.367,49.632,77.617,76.957
	c21.415,24.131,44.557,46.435,72.809,62.744c8.689,5.017,18.29,7.359,27.945,8.225c7.908,0.707,14.98-3.896,21.65-8.001
	c20.392-12.549,37.679-28.815,54.098-46.023c23.33-24.45,44.624-50.813,69.663-73.665c32.654-29.803,68.232-55.393,107.871-75.101
	c37.64-18.715,77.316-31.217,118.875-37.512c17.294-2.62,34.735-3.622,52.254-4.027c40.439-0.936,80.023,4.397,118.924,15.11
	c17.814,4.905,34.751,12.237,51.596,19.758c2.334,1.042,2.746,2.416,2.251,4.718c-1.782,8.291-3.406,16.616-5.132,24.919
	c-5.075,24.426-10.131,48.855-15.271,73.267c-3.63,17.241-7.466,34.438-11.058,51.687c-3.29,15.797-6.004,31.701-8.73,47.608
	c-5.531,32.279-33.369,56.024-66.17,56.193c-23.095,0.119-41.819-11.582-49.421-29.313c-5.633-13.139-3.433-26.106,2.134-38.727
	c3.027-6.861,6.985-13.162,12.083-18.708c0.777-0.847,1.87-1.74,1.429-2.969c-0.496-1.383-1.98-0.934-3.073-0.964
	c-32.854-0.897-64.633,4.113-94.963,17.2c-32.892,14.192-60.594,36.08-87.381,59.222c-28.098,24.274-54.234,50.644-80.771,76.585
	c-23.974,23.438-48.12,46.697-75.017,66.881c-19.901,14.936-42.098,25.145-65.707,32.529c-10.773,3.37-21.507,6.901-32.39,9.879
	c-12.922,3.534-26.412,3.479-39.168,0.878c-21.629-4.411-42.688-11.338-63.186-19.737c-20.515-8.407-38.359-21.066-55.356-34.984
	c-23.644-19.36-45.301-40.882-67.149-62.202c-30.487-29.75-60.594-59.934-93.989-86.527c-19.773-15.746-40.33-30.417-63.457-40.838
	c-24.964-11.248-51.281-17.413-78.73-18.359c-5.653-0.195-11.307-0.387-16.962-0.509c-1.101-0.023-2.592-0.499-3.222,0.627
	c-0.866,1.546,0.809,2.314,1.624,3.23c8.235,9.257,13.759,19.927,16.47,31.991c4.346,19.349-5.758,39.087-23.651,48.164
	c-35.988,18.258-81.799-3.315-92.257-42.152c-1.256-4.665-2.881-9.227-3.024-14.094c-0.11-3.733-3.67-5.564-4.371-9.231
	c-3.936-20.589-8.263-41.104-12.57-61.619c-5.261-25.06-10.705-50.08-15.932-75.146c-2.983-14.304-6.82-28.465-5.943-43.373
	c0.25-4.255,1.43-6.494,5.234-8.342c22.122-10.746,45.434-17.925,69.371-23.046C471.464,1186.686,500.825,1182.888,529.971,1183.873
	z M528.274,1212.678c-17.124-0.398-35.824,1.201-54.49,3.945c-24.611,3.617-48.558,9.587-71.844,18.341
	c-3.524,1.325-4.604,3.01-3.827,6.679c3.233,15.271,6.182,30.604,9.377,45.884c5.479,26.197,11.143,52.356,16.514,78.575
	c0.746,3.64,2.292,4.47,5.453,3.473c21.037-6.635,42.607-10.109,64.584-11.82c25.594-1.991,50.863-0.314,75.947,4.846
	c25.288,5.202,49.028,14.462,71.25,27.582c21.539,12.716,41.395,27.769,60.473,43.881c40.052,33.828,76.066,71.931,114.141,107.852
	c16.7,15.754,33.818,31.009,52.562,44.356c20.407,14.531,43.71,22.366,67.435,29.065c10.15,2.865,20.104,6.462,31.159,6.086
	c7.998-0.271,15.223-2.385,22.77-4.286c35.124-8.849,67.374-22.913,95.219-46.895c33.174-28.57,63.631-59.934,95.223-90.128
	c30.319-28.979,61.166-57.275,96.088-80.766c31.398-21.12,65.651-34.826,103.219-39.969c21.033-2.88,42.099-3.288,63.284-1.514
	c19.973,1.674,39.523,5.239,58.714,10.907c5.891,1.739,6.117,1.569,7.392-4.616c4.593-22.298,9.265-44.579,13.938-66.859
	c3.892-18.553,7.826-37.096,11.746-55.642c0.648-3.066,0.338-5.249-3.248-6.641c-25.1-9.736-51.102-15.971-77.699-19.507
	c-28.818-3.832-57.771-4.149-86.756-1.541c-23.935,2.153-47.371,6.841-70.345,13.732c-31.034,9.31-60.371,22.516-88.12,39.275
	c-34.679,20.945-65.609,46.498-93.778,75.533c-16.446,16.953-31.166,35.487-47.99,52.082
	c-21.258,20.968-43.455,40.759-70.656,53.882c-12.598,6.077-25.714,10.244-40.026,7.113c-9.176-2.008-17.736-5.657-25.901-10.182
	c-32.486-17.998-58.759-43.425-83.102-70.886c-22.985-25.93-46.634-51.09-73.701-72.846
	c-49.06-39.436-103.536-67.684-165.469-80.881C582.124,1215.318,556.267,1212.316,528.274,1212.678z M435.772,1384.144
	c-1.196,1.812-1.428,3.386-1.502,5.015c-0.382,8.328-0.188,16.608,1.42,24.839c4.083,20.908,21.874,35.995,44.002,32.76
	c13.019-1.902,19.554-9.337,17.002-20.319c-1.41-6.068-4.345-11.516-8.455-16.191c-5.627-6.4-11.714-10.675-21.29-7.742
	c-8.35,2.558-16.1-0.065-21.918-7.016C441.994,1391.858,439.042,1388.156,435.772,1384.144z M1500.069,1383.627
	c-1.936,2.657-3.221,4.365-4.447,6.113c-7.55,10.753-16.932,16.868-30.628,12.207c-2.662-0.906-5.243-0.568-7.73,0.697
	c-10.404,5.292-16.28,14.104-18.22,25.252c-1.466,8.426,1.349,12.654,9.006,16.271c10.615,5.016,20.967,3.694,31.097-1.509
	c13.373-6.87,19.277-18.685,21.443-32.837C1501.87,1401.461,1502.466,1393.061,1500.069,1383.627z"/>
<path fill-rule="evenodd" clip-rule="evenodd" fill="#252E62" d="M1430.085,515.401c0.005,37.985-1.098,75.919-4.601,113.784
	c-1.78,19.234-3.99,38.412-6.8,57.494c-3.222,21.882-7.298,43.644-12.082,65.257c-6.108,27.598-13.331,54.908-21.957,81.815
	c-7.352,22.933-15.713,45.511-24.939,67.782c-13.496,32.58-28.97,64.16-46.488,94.747c-26.593,46.43-57.523,89.775-92.743,130.057
	c-37.547,42.942-79.063,81.659-124.326,116.336c-36.578,28.023-75.164,52.973-114.997,76.174
	c-11.391,6.634-19.504,5.969-30.346-0.27c-65.956-37.95-127.466-81.868-182.829-134.163
	c-43.419-41.013-82.025-86.139-115.62-135.598c-31.292-46.07-57.359-94.903-78.922-146.175
	c-9.778-23.251-18.355-46.987-25.909-71.042c-7.31-23.28-13.577-46.871-19.092-70.664c-6.3-27.182-11.262-54.61-15.197-82.201
	c-2.015-14.123-3.449-28.357-4.905-42.574c-4.129-40.298-5.831-80.689-5.172-121.149c0.384-23.611,1.348-47.224,3.332-70.799
	c1.437-17.07,2.976-34.124,5.041-51.116c2.406-19.803,5.338-39.54,8.909-59.18c2.821-15.522,6.192-30.922,9.692-46.299
	c1.371-6.022,2.015-6.369,7.598-3.672c27.221,13.15,55.686,22.972,84.876,30.501c44.551,11.491,89.886,17.384,135.968,16.632
	c29.547-0.481,58.807-3.616,87.782-9.596c39.497-8.153,77.202-21.325,113.245-39.376c4.691-2.349,9.562-2.251,14.394,0.16
	c27.012,13.481,55.05,24.4,84.151,32.368c29.617,8.109,59.788,13.25,90.478,15.28c22.477,1.487,44.904,1.467,67.391-0.063
	c22.986-1.563,45.742-4.663,68.269-9.261c22.511-4.595,44.666-10.653,66.375-18.262c15.859-5.559,31.463-11.735,46.555-19.14
	c3.166-1.554,4.569-1.181,5.49,2.488c5.442,21.665,9.564,43.593,13.168,65.615c5.406,33.046,9.115,66.301,11.441,99.707
	C1428.805,472.438,1429.529,493.913,1430.085,515.401z M939.818,1080.811c1.896,0.621,3.107-0.603,4.467-1.576
	c6.765-4.843,13.668-9.5,20.299-14.52c3.235-2.45,5.563-2.314,8.594,0.396c6.688,5.978,13.663,11.634,20.58,17.35
	c1.598,1.319,3.33,3.261,5.214,0.091c4.659-7.84,11.562-13.681,18.03-19.889c24.527-23.539,50.348-45.465,79.675-62.916
	c20.291-12.075,40.656-24.028,61.06-35.912c5.604-3.263,9.434-7.638,11.286-13.925c2.403-8.154,4.249-16.425,6.029-24.726
	c0.747-3.486,0.241-6.263-3.005-8.062c-2.046-1.134-2.916-3-2.524-5c0.515-2.629-0.614-4.177-2.063-6.147
	c-3-4.08-0.396-9.863,4.288-11.638c4.742-1.796,8.229-5.652,9.968-10.22c1.875-4.928,2.376-10.364,3.729-15.512
	c0.879-3.342,0.126-6.342-1.411-9.138c-7.627-13.868-17.099-26.506-26.382-39.269c-1.794-2.467-3.012-2.387-4.774,0.2
	c-2.43,3.566-5.292,6.84-8.008,10.209c-8.221,10.196-5.019,9.643-16.051,1.791c-2.401-1.709-2.708-3.536-2.231-6.402
	c1.134-6.825,5.89-11.461,9.337-16.885c3.166-4.982,3.268-4.979-2.433-7.28c-17.119-6.911-34.2-13.921-51.425-20.562
	c-4.241-1.635-3.38-3.095-1.058-5.489c10.306-10.628,20.704-21.171,30.833-31.966c6.23-6.64,13.983-11.976,18.608-19.975
	c7.593-13.131,10.689-27.875,14.238-42.423c0.531-2.177-0.36-3.875-1.575-5.546c-3.807-5.236-7.422-10.623-11.43-15.7
	c-2.482-3.143-2.732-5.316,0.345-8.411c5.266-5.296,9.98-11.143,14.899-16.782c1.728-1.98,2.655-3.709-1.26-4.117
	c-4.099-0.427-9.516,0.557-11.827-2.43c-2.422-3.128-0.616-8.365-0.738-12.678c-0.117-4.163,0.021-8.333-0.063-12.498
	c-0.023-1.21,0.583-2.696-1.224-3.729c-1.516,1.1-3.129,2.236-4.707,3.422c-8.238,6.193-16.502,12.355-24.68,18.626
	c-2.707,2.075-3.736,1.504-3.723-1.793c0.027-6.667,0.034-13.333-0.03-20c-0.011-1.075,0.642-2.535-0.698-3.168
	c-1.316-0.623-2.102,0.708-2.927,1.423c-5.904,5.119-11.793,10.257-17.627,15.457c-2.295,2.045-3.483,1.869-4.435-1.284
	c-1.922-6.369-3.965-12.718-6.36-18.919c-1.331-3.448-1.821-7.313-4.642-11.21c-1.196,3.22-2.162,5.645-3.001,8.113
	c-2.836,8.338-5.612,16.697-8.457,25.032c-0.303,0.886-0.239,2.17-1.39,2.459c-1.563,0.394-1.819-1.08-2.413-2.016
	c-5.521-8.7-10.982-17.438-16.589-26.082c-2.297-3.542-4.071-7.493-7.363-10.583c-1.318,1.933-0.817,3.802-0.831,5.542
	c-0.062,7.832,0.01,15.666-0.021,23.499c-0.005,1.257,0.504,2.929-1.096,3.511c-1.228,0.447-2.071-0.831-2.967-1.527
	c-6.84-5.32-14.154-9.913-21.608-14.311c-3.191-1.883-5.295-2.594-5.289,2.527c0.006,5.155-0.495,10.314-0.883,15.464
	c-0.625,8.292-0.021,16.776-2.115,24.84c-4.813,18.537-9.319,37.106-13.077,55.908c-3.499,17.505,0.272,32.525,10.806,46.454
	c5.423,7.17,11.222,13.985,17.362,20.536c3.281,3.5,3.031,4.647-1.735,5.917c-3.674,0.979-7.529,1.297-11.313,1.848
	c-15.154,2.207-30.359,4.129-45.156,8.284c-10.766,3.023-20.805,7.96-31.192,11.972c-4.472,1.727-8.401,2.12-12.954,0.363
	c-6.952-2.682-7.059-2.473-2.753-8.458c12.143-16.874,24.518-33.586,36.328-50.689c10.263-14.862,15.872-31.173,15.026-49.722
	c-0.651-14.293,0.562-28.646,3.185-42.782c0.718-3.868-0.657-5.166-4.396-5.01c-4.159,0.173-8.332,0.003-12.498,0.044
	c-3.156,0.031-4.79-0.831-3.485-4.456c1.234-3.431,2.067-7.005,3.068-10.519c1.233-4.33,2.459-8.663,3.688-12.994
	c-4.389,2.157-7.668,4.891-10.92,7.658c-1.353,1.15-2.51,3.25-4.522,2.326c-1.764-0.81-0.997-2.978-1.005-4.554
	c-0.054-11-0.001-22-0.05-32.999c-0.008-1.823,0.646-3.913-1.591-5.803c-2.718,4.359-5.181,8.444-7.774,12.443
	c-5.152,7.944-10.008,16.101-16.359,23.2c-0.776,0.867-1.508,1.984-2.826,1.712c-1.594-0.33-1.158-1.803-1.216-2.884
	c-0.697-12.971-1.041-25.93-0.143-38.925c0.475-6.865,0.084-13.789,0.084-21.799c-3.41,3.525-4.084,7.037-5.399,10.137
	c-5.718,13.473-11.239,27.03-16.825,40.559c-0.435,1.052-0.57,2.575-1.981,2.544c-1.542-0.033-1.291-1.677-1.634-2.709
	c-0.421-1.264-0.831-2.539-1.12-3.837c-2.404-10.784-7.39-20.343-14.414-28.729c-5.629-6.721-9.042-6.003-12.42,2.097
	c-4.97,11.918-7.25,24.542-9.583,37.15c-0.26,1.404-0.015,3.479-1.642,3.877c-1.764,0.433-2.246-1.627-3.027-2.829
	c-7.614-11.709-15.2-23.437-22.807-35.151c-3.856-5.939-7.739-11.862-11.808-18.098c-1.406,1.769-1.233,3.119-1.317,4.406
	c-1.224,18.95-2.377,37.905-3.747,56.845c-0.221,3.059,1.12,7.584-1.475,8.848c-2.632,1.282-5.264-2.616-7.728-4.413
	c-9.928-7.239-20.242-13.959-29.579-22.008c-2.798-2.413-6.427-4.869-9.907-2.285c-3.832,2.845-0.891,6.691,0.159,10.049
	c0.293,0.936,0.929,1.764,1.399,2.646c4.482,8.392,9.339,16.913,16.082,23.314c10.02,9.513,9.676,18.739,3.125,29.318
	c-0.174,0.28-0.314,0.595-0.402,0.913c-0.629,2.258-1.956,2.762-4.145,1.969c-3.631-1.315-7.43-1.896-11.29-1.731
	c-5.174,0.22-7.049,2.316-6.138,7.323c0.592,3.25,1.608,6.47,2.819,9.552c3.963,10.081,9.403,19.457,14.271,29.103
	c1.631,3.232,2.208,5.875-1.21,8.209c-0.943,0.644-1.625,1.671-2.57,2.312c-3.464,2.349-3.997,4.474-0.709,7.807
	c7.353,7.452,14.09,15.513,21.474,22.931c13.462,13.524,25.237,28.224,33.566,45.498c0.687,1.423,2.498,2.858,1.285,4.455
	c-1.072,1.411-2.794,0.111-4.178-0.237c-7.427-1.868-14.853-3.747-22.251-5.725c-3.765-1.007-7.463-1.622-11.269-0.198
	c-5.149,1.927-10.27,3.943-14.987,6.772c-34.589,20.741-49.885,56.811-39.768,97.812c0.577,2.339,1.523,4.267,3.713,5.64
	c5.207,3.264,10.261,6.77,15.438,10.082c1.429,0.915,2.95,2.829,4.825,1.063c1.666-1.569,0.404-3.431-0.177-5.104
	c-1.907-5.492-4.055-10.901-5.256-16.623c-4.242-20.201-1.005-39.697,5.342-58.947c3.924-11.901,13.646-18.555,26.154-17.219
	c9.961,1.064,19.56,3.841,29.128,6.771c4.016,1.229,7.805,4.044,12.41,2.639c11.208-3.419,22.155-7.738,31.221-15.175
	c10.158-8.333,21.272-8.845,33.407-7.171c18.635,2.57,36.345,8.264,53.666,15.223c8.014,3.219,16.622,5.771,20.06,15.59
	c7.043,20.118,9.797,40.719,8.614,61.93c-0.12,2.161-0.669,3.73-2.92,4.67c-4.138,1.728-8.194,3.667-12.197,5.691
	c-2.819,1.425-5.182,1.315-7.863-0.575c-5.707-4.023-11.621-7.754-17.486-11.55c-1.485-0.961-3.172-1.482-4.358,0.412
	c-1.167,1.864-0.118,2.977,1.51,4.012c2.521,1.604,4.845,3.515,7.352,5.143c3.405,2.212,9.467,3.817,9.14,7.192
	c-0.309,3.188-6.601,4.059-10.271,5.92c-2.039,1.034-8.332-1.146-8.545-3.058c-0.337-3.028,2.841-2.589,4.415-3.746
	c0.66-0.485,1.461-0.779,2.2-1.157c1.481-0.757,2.524-1.741,1.574-3.541c-0.871-1.648-2.342-1.801-3.858-1.165
	c-2.297,0.962-4.742,1.78-6.739,3.2c-3.37,2.396-6.004,1.361-8.992-0.718c-6.271-4.364-12.704-8.496-19.103-12.674
	c-1.265-0.826-2.634-1.584-3.891,0.201c-1.207,1.713-1.02,3.034,0.785,4.161c0.829,0.518,1.75,1.02,1.96,2.32
	c-0.923,0.556-1.862,1.21-2.875,1.715c-4.61,2.297-9.327,4.396-13.835,6.876c-3.057,1.682-5.506,1.357-8.253-0.65
	c-3.75-2.739-7.739-5.15-11.636-7.686c-1.563-1.017-2.669-0.621-3.73,0.94c-1.026,1.51-0.454,2.528,0.638,3.421
	c1.02,0.834,2.276,1.377,3.31,2.197c2.685,2.127,7.722,3.173,7.659,6.322c-0.058,2.905-5.138,3.338-8.02,4.813
	c-11.28,5.769-11.296,5.737-20.453-0.798c-0.135-0.097-0.277-0.185-0.417-0.274c-2.774-1.759-2.359-3.226,0.404-4.492
	c2.571-1.179,5.184-2.28,7.688-3.588c1.581-0.825,3.537-1.719,2.293-4.151c-1.192-2.331-3.109-1.539-4.755-0.784
	c-3.329,1.526-6.593,3.201-9.84,4.898c-3.222,1.683-5.997,1.62-9.172-0.651c-7.023-5.024-14.347-9.632-21.57-14.375
	c-1.676-1.1-3.46-2.459-5.025,0.207c-1.4,2.383,0.438,3.204,1.989,4.235c6.639,4.412,13.241,8.88,19.892,13.274
	c2,1.322,2.677,2.182,0.061,3.812c-14.468,9.019-15.461,9.063-29.695-0.325c-0.139-0.092-0.268-0.197-0.403-0.295
	c-2.143-1.553-5.654-2.77-6.136-4.731c-0.908-3.692,3.738-3.157,5.74-4.79c1.389-1.132,1.863-2.109,1.042-3.807
	c-0.937-1.935-2.225-1.605-3.696-0.908c-0.901,0.427-1.843,0.792-2.682,1.319c-4.844,3.039-9.617,4.594-14.257-0.366
	c-0.326-0.349-0.832-0.542-1.275-0.765c-1.544-0.778-3.122-1.505-4.365,0.439c-1.218,1.905-0.207,3.304,1.396,4.092
	c5.557,2.731,2.92,4.25-0.684,5.921c-1.333,0.618-3.661,1.055-2.356,3.449c1.004,1.842,2.727,2.647,4.598,1.242
	c6.628-4.982,12.234-2.411,17.783,2.054c2.454,1.975,5.149,3.676,7.851,5.311c2.349,1.423,4.815,2.513,0.975,5.109
	c-1.296,0.876-1.187,2.339-0.373,3.583c0.741,1.132,1.914,1.487,3.028,0.688c5.347-3.834,9.573-1.134,13.892,2.079
	c1.448,1.077,3.416,2.826,5.145,0.304c1.717-2.506-0.569-3.512-2.104-4.685c-0.92-0.704-1.985-1.225-2.87-1.965
	c-0.662-0.554-1.143-1.465-0.09-2.044c5.809-3.197,11.671-6.298,17.943-8.509c0.495-0.174,1.324,0.205,1.842,0.556
	c4.669,3.157,9.653,5.979,13.808,9.717c2.191,1.972,3.639,1.74,5.632,0.786c5.841-2.796,11.99-5.138,17.376-8.645
	c5.516-3.591,9.753-2.562,14.334,1.194c2.698,2.212,6.244,3.969,0.17,6.325c-1.57,0.609-2.27,1.926-1.447,3.665
	c0.847,1.79,2.207,1.772,3.762,1.073c1.215-0.547,2.513-0.963,3.63-1.666c3.051-1.918,5.793-1.913,8.68,0.496
	c2.03,1.694,4.417,2.966,6.676,4.376c1.55,0.968,2.864,0.617,3.815-0.936c0.853-1.391,0.46-2.548-0.795-3.457
	c-1.477-1.068-2.917-2.206-4.482-3.128c-2.988-1.762-2.381-3.07,0.349-4.346c4.364-2.041,8.907-3.8,13-6.293
	c4.94-3.009,8.32-1.214,11.69,2.469c-1.754,1.89-3.847,2.809-5.996,3.741c-1.88,0.815-4.606,1.585-3.098,4.526
	c1.467,2.858,3.723,1.289,5.564,0.276c5.721-3.146,11.341-6.663,17.175-0.133c0.991,1.11,2.38,1.06,3.407-0.365
	c0.98-1.36,1.581-2.958-0.13-3.878c-6.466-3.474-1.256-4.688,1.209-6.142c2.134-1.258,4.52-2.104,6.829-3.046
	c3.741-1.525,5.772,1.759,8.432,3.164c2.737,1.446-0.085,2.469-0.386,3.745c-0.41,1.735,0.435,4.014,2.078,3.87
	c4.554-0.398,2.651,2.2,2.077,3.941c-8.078,24.459-20.156,46.638-37.667,65.696c-15.912,17.319-23.523,37.567-21.599,61.19
	c0.102,1.244,0.838,2.852-0.64,3.633c-1.358,0.718-2.496-0.601-3.602-1.2c-7.602-4.118-15.188-8.269-22.719-12.515
	c-14.014-7.9-28.862-14.333-41.499-24.637c-30.453-24.832-51.6-56.58-68.48-91.509c-4.653-9.627-8.578-11.163-18.675-7.005
	c-3.957,1.629-4.942,3.247-3.061,7.412c6.722,14.883,14.107,29.411,22.741,43.258c7.29,11.689,14.071,23.77,23.675,33.855
	c14.375,15.096,31.649,26.354,49.252,37.164c25.122,15.429,51.482,28.504,78.146,40.997c2.784,1.304,4.592,1.078,5.357-2.497
	c1.604-7.485,3.641-14.879,5.276-22.358c1.151-5.264,3.379-9.544,8.063-12.63c5.087-3.35,10.742-5.19,16.354-7.232
	c4.671-1.7,8.866-1.793,12.683,2.268c2.825,3.006,6.068,5.708,9.452,8.079c3.39,2.376,2.775,4.49,0.953,7.519
	c-4.881,8.114-10.523,15.77-14.707,24.305c-0.103,0.12-0.233,0.227-0.296,0.363c-0.037,0.082,0.033,0.213,0.056,0.32
	C939.724,1081.322,939.771,1081.066,939.818,1080.811z M1038.617,484.198c-4.331,0-8.67,0.164-12.991-0.05
	c-3.709-0.183-4.447,1.681-4.476,4.881c-0.029,3.374,0.672,5.419,4.665,5.235c4.82-0.222,9.66,0.03,14.488-0.073
	c2.942-0.063,4.065,1.152,4.246,4.112c0.634,10.362,0.21,11.222-9.259,15.529c-13.793,6.274-30.687,2.241-37.671-9.669
	c-6.076-10.361-6.073-21.506-2.179-32.771c3.778-10.931,11.796-17.139,24.594-17.551c10.313-0.332,19.094,2.885,22.967,13.804
	c1.775,5.004,5.207,1.765,7.942,1.402c3.451-0.458,2.503-3.148,1.894-5.048c-2.044-6.366-5.64-11.713-11.674-14.938
	c-25.884-13.831-54.604,0.165-58.885,29.096c-2.369,16.01,0.782,30.922,14.905,40.865c17.84,12.56,40.829,8.545,56.29-3.609
	c1.555-1.223,1.926-2.611,1.93-4.29c0.02-7.662-0.075-15.325,0.017-22.986c0.037-3.124-1.449-4.044-4.313-3.959
	C1046.948,484.301,1042.781,484.209,1038.617,484.198z M1074.511,474.232c0.007,0,0.013,0,0.02,0c0,7.827-0.185,15.66,0.038,23.481
	c0.471,16.443,7.754,25.43,22.726,28.209c5.951,1.105,11.944,1,17.866-0.336c12.698-2.867,19.885-10.958,20.92-23.901
	c1.383-17.289,0.299-34.619,0.634-51.927c0.058-2.949-1.094-4.102-4.104-4.196c-6.22-0.194-6.685,0.167-6.789,6.58
	c-0.255,15.645,0.781,31.315-0.571,46.933c-1.315,15.196-19.302,23.108-32.139,14.464c-6.952-4.681-7.635-11.805-7.76-18.983
	c-0.253-14.485-0.187-28.978-0.01-43.465c0.049-3.984-1.014-5.563-5.296-5.616c-4.471-0.055-5.789,1.446-5.618,5.778
	C1074.727,458.901,1074.511,466.571,1074.511,474.232z M698.835,473.997c0,7.493-0.19,14.992,0.053,22.478
	c0.251,7.729,1.412,15.333,6.94,21.352c10.482,11.41,35.971,11.799,47.146,0.989c6.994-6.767,8.063-15.412,8.168-24.327
	c0.171-14.485-0.067-28.974,0.129-43.458c0.055-4.06-1.13-5.558-5.352-5.545c-4.245,0.013-5.851,1.18-5.805,5.676
	c0.16,15.814,0.163,31.639-0.26,47.446c-0.184,6.855-2.272,13.752-9.602,16.108c-13.925,4.477-31.079,2.297-30.457-20.143
	c0.032-1.165-0.007-2.331-0.007-3.497c0-13.654-0.13-27.31,0.08-40.961c0.064-4.149-1.985-4.64-5.25-4.528
	c-3.084,0.106-6.034-0.342-5.87,4.436C699.02,458.005,698.821,466.004,698.835,473.997z M807.376,525.082
	c8.491,0,16.984-0.104,25.473,0.048c3.737,0.067,6.195-0.089,6.117-5.135c-0.074-4.781-2.375-4.878-5.911-4.845
	c-12.986,0.121-25.973,0.075-38.96,0.025c-1.224-0.005-2.892,0.631-3.583-0.881c-0.598-1.307,0.877-1.963,1.57-2.82
	c8.459-10.464,16.931-20.918,25.391-31.381c5.85-7.235,11.592-14.561,17.572-21.686c2.972-3.541,2.943-7.664,1.648-11.287
	c-1.012-2.829-4.736-1.431-7.25-1.447c-14.818-0.096-29.637,0.051-44.454-0.104c-3.924-0.042-4.705,1.726-4.739,5.163
	c-0.035,3.466,1.17,4.629,4.636,4.575c10.986-0.174,21.977-0.091,32.965-0.053c1.399,0.005,3.278-0.667,3.927,1.206
	c0.492,1.419-0.903,2.38-1.718,3.392c-8.755,10.869-17.539,21.714-26.279,32.596c-5.513,6.864-10.988,13.759-16.433,20.677
	c-2.539,3.226-2.161,7.186-1.132,10.515c0.882,2.854,4.385,1.328,6.686,1.376C791.057,525.186,799.218,525.082,807.376,525.082z
	 M1250.936,525.089c7.084-0.01,7.209-0.061,4.851-5.871c-9.37-23.083-18.946-46.083-28.146-69.233
	c-1.733-4.362-4.631-4.397-8.262-4.441c-3.408-0.042-5.804,0.375-7.225,4.271c-5.007,13.73-10.455,27.3-15.707,40.941
	c-3.76,9.765-7.51,19.534-11.163,29.339c-0.53,1.422-1.957,3.09-0.394,4.579c2.21,2.106,10.264-0.224,11.342-3.166
	c1.999-5.452,4.083-10.876,5.927-16.38c0.997-2.974,2.7-4.152,5.878-4.086c8.149,0.167,16.307,0.129,24.458-0.012
	c2.758-0.047,4.295,0.984,5.218,3.54c1.805,4.998,3.961,9.873,5.642,14.909C1244.743,523.645,1246.837,526.239,1250.936,525.089z
	 M1203.507,732.459c0.234-2.348-0.979-3.847-2.912-4.792c-2.519-1.232-3.575,0.775-4.769,2.348
	c-10.631,14.011-21.297,27.995-31.846,42.067c-2.081,2.775-3.771,3.859-6.56,0.792c-1.882-2.069-4.269-3.685-6.469-5.455
	c-1.289-1.037-2.622-1.212-2.82,0.841c-0.314,3.249-1.015,6.532,1.99,9.272c5.634,5.135,5.541,5.234,1.04,11.295
	c-0.396,0.533-0.729,1.116-1.153,1.625c-1.776,2.134-1.477,3.688,0.949,5.225c4.765,3.017,9.41,6.226,14.044,9.443
	c1.968,1.366,3.314,1.109,4.369-1.048c0.656-1.341,1.464-2.608,2.139-3.941c1.28-2.531,2.733-2.997,4.979-0.891
	c2.294,2.152,4.878,3.993,7.301,6.01c3.021,2.514,4.596-0.475,6.238-1.89c2.102-1.811-0.375-2.896-1.375-3.868
	c-2.137-2.076-4.324-4.209-6.833-5.769c-4.582-2.849-4.359-6.073-2.117-10.403c6.261-12.092,12.329-24.288,18.21-36.569
	C1200.116,742.148,1202.811,737.665,1203.507,732.459z M902.535,507.47c0,3.664,0.142,7.334-0.038,10.989
	c-0.199,4.043-0.079,6.756,5.537,6.841c6.121,0.093,5.2-3.439,5.194-7.033c-0.009-4.496,0.414-9.044-0.117-13.478
	c-1.103-9.197,1.981-16.604,7.536-23.833c7.588-9.875,14.324-20.407,21.351-30.708c0.872-1.279,3.132-2.923,0.338-4.389
	c-3.559-1.868-10.413,0.36-12.657,3.798c-6.086,9.323-12.187,18.636-18.309,27.935c-2.933,4.456-2.958,4.436-5.944-0.221
	c-5.469-8.527-11.435-16.785-16.238-25.672c-3.197-5.913-7.587-6.564-13.196-6.088c-3.294,0.28-3.703,1.195-1.79,3.957
	c5.961,8.604,11.595,17.437,17.574,26.028C898.471,485.212,905.852,494.511,902.535,507.47z M632.873,485.312
	c0,11.812,0.084,23.624-0.056,35.434c-0.038,3.165,0.869,4.425,4.209,4.391c13.64-0.141,27.284-0.181,40.922,0.014
	c3.966,0.057,4.678-1.699,4.722-5.106c0.047-3.651-1.21-4.99-4.942-4.909c-9.478,0.208-18.968-0.101-28.443,0.155
	c-4.083,0.11-5.452-1.105-5.41-5.313c0.196-19.795-0.041-39.594,0.178-59.388c0.052-4.695-2.286-5.019-5.875-5.037
	c-3.48-0.018-5.515,0.434-5.402,4.827C633.076,462.016,632.878,473.667,632.873,485.312z M1170.297,485.496
	c0-11.83-0.146-23.662,0.078-35.487c0.08-4.232-2.129-4.48-5.316-4.433c-3.235,0.048-5.853,0.006-5.824,4.587
	c0.148,23.492,0.197,46.986-0.022,70.477c-0.05,5.278,3.166,4.216,6.228,4.508c3.628,0.347,5.009-0.79,4.933-4.666
	C1170.142,508.825,1170.289,497.159,1170.297,485.496z M714.313,904.405c1.106,3.814,1.655,6.066,2.411,8.247
	c2.383,6.876,3.059,7.039,9.359,3.336c2.167-1.273,2.715-2.312,0.366-3.819C722.836,909.851,719.218,907.542,714.313,904.405z
	 M746.716,921.032c2.167,4.611,4.017,9.254,8.556,11.878c1.567,0.906,2.763,1.508,4.145-0.529c1.393-2.055,0.381-3.103-1.081-4.052
	C754.5,925.839,750.594,923.457,746.716,921.032z"/>
<path fill-rule="evenodd" clip-rule="evenodd" fill="#252E62" d="M528.274,1212.678c27.992-0.361,53.85,2.641,79.535,8.113
	c61.933,13.197,116.409,41.445,165.469,80.881c27.067,21.756,50.715,46.916,73.701,72.846
	c24.343,27.461,50.616,52.888,83.102,70.886c8.165,4.524,16.726,8.174,25.901,10.182c14.313,3.131,27.429-1.036,40.026-7.113
	c27.201-13.123,49.398-32.914,70.656-53.882c16.824-16.595,31.544-35.129,47.99-52.082c28.169-29.035,59.1-54.588,93.778-75.533
	c27.749-16.76,57.086-29.966,88.12-39.275c22.974-6.892,46.41-11.579,70.345-13.732c28.985-2.608,57.938-2.291,86.756,1.541
	c26.598,3.536,52.6,9.771,77.699,19.507c3.586,1.392,3.896,3.574,3.248,6.641c-3.92,18.546-7.854,37.089-11.746,55.642
	c-4.674,22.28-9.346,44.562-13.938,66.859c-1.274,6.186-1.501,6.355-7.392,4.616c-19.19-5.668-38.741-9.233-58.714-10.907
	c-21.186-1.774-42.251-1.366-63.284,1.514c-37.567,5.143-71.82,18.849-103.219,39.969c-34.922,23.49-65.769,51.786-96.088,80.766
	c-31.592,30.194-62.049,61.558-95.223,90.128c-27.845,23.981-60.095,38.046-95.219,46.895c-7.547,1.901-14.771,4.015-22.77,4.286
	c-11.055,0.376-21.009-3.221-31.159-6.086c-23.725-6.699-47.028-14.534-67.435-29.065c-18.744-13.348-35.862-28.603-52.562-44.356
	c-38.075-35.921-74.089-74.023-114.141-107.852c-19.079-16.112-38.935-31.165-60.473-43.881
	c-22.222-13.12-45.962-22.38-71.25-27.582c-25.083-5.16-50.353-6.837-75.947-4.846c-21.978,1.711-43.548,5.186-64.584,11.82
	c-3.162,0.997-4.708,0.167-5.453-3.473c-5.371-26.219-11.035-52.378-16.514-78.575c-3.195-15.28-6.144-30.612-9.377-45.884
	c-0.777-3.669,0.303-5.354,3.827-6.679c23.286-8.754,47.233-14.724,71.844-18.341
	C492.451,1213.879,511.151,1212.279,528.274,1212.678z M1422.267,1293.906c-1.644-0.848-2.318-1.022-2.751-1.444
	c-6.896-6.729-13.742-13.508-20.636-20.238c-7.732-7.55-15.594-14.972-23.214-22.633c-3.678-3.697-7.169-0.727-10.68-0.166
	c-2.03,0.325-1.446,2.199-1.129,3.701c4.514,21.319,9.134,42.618,13.405,63.985c0.949,4.747,3.296,4.606,7.059,4.077
	c4.324-0.608,3.487-3.25,2.942-5.819c-2.449-11.55-5.148-23.049-7.441-34.628c-0.915-4.621-2.602-9.244-2.267-15.084
	c5.57,5.313,10.283,9.743,14.925,14.247c10.358,10.053,20.781,20.041,30.964,30.27c3.716,3.732,7.217,1.101,10.581,0.175
	c3.14-0.864,1.184-3.694,0.798-5.564c-4.333-21.014-8.853-41.988-13.116-63.017c-0.911-4.495-3.624-3.815-6.699-3.343
	c-3.172,0.487-4.123,2.028-3.386,5.209c2.403,10.368,4.652,20.772,6.871,31.183
	C1419.768,1280.791,1420.869,1286.803,1422.267,1293.906z M755.755,1336.472c0.171-3.813-1.366-7.546-3.961-10.64
	c-8.903-10.613-20.16-18.738-30.217-28.138c-2.141-2.001-3.657-0.507-5.025,1.032c-14.665,16.493-29.18,33.122-44.044,49.433
	c-3.441,3.775-0.496,4.972,1.472,6.955c2.129,2.146,3.962,3.087,6.476,0.062c5.206-6.266,10.775-12.229,16.19-18.321
	c1.238-1.393,2.425-3.007,4.543-1.388c7.737,5.916,14.284,12.066,12.419,23.519c-1.253,7.694-2.665,15.402-3.541,23.17
	c-0.452,4.005,3.226,9.729,6.837,10.945c1.482,0.499,2.267-0.02,2.487-1.453c1.639-10.668,4.663-21.185,4.082-32.102
	c-0.313-5.878-0.584-5.863,5.101-3.812C741.974,1360.571,755.652,1351.079,755.755,1336.472z M1131.242,1420.883
	c1.79-3.747,3.64-6.589,4.542-9.704c2.499-8.629-0.675-16.829-7.991-21.794c-7.83-5.314-16.121-5.024-24.41,1.527
	c-8.859,7.001-17.271,14.569-26.105,21.603c-3.28,2.611-3.411,4.514-0.742,7.63c14.045,16.399,28.06,32.829,41.77,49.507
	c2.757,3.354,4.321,2.314,6.725,0.24c2.377-2.051,4.602-3.577,1.387-7.065c-5.402-5.859-10.313-12.172-15.449-18.279
	c-1.178-1.4-2.609-2.57-1.154-4.729c5.292-7.849,14.587-11.74,23.971-9.377c7.088,1.784,14.207,3.714,20.974,6.427
	c5.59,2.241,9.289,0.84,13.212-3.196c2.599-2.673,2.218-3.605-0.988-4.519C1155.383,1425.849,1144.297,1420.456,1131.242,1420.883z
	 M640.547,1324.198c-13.067,0.3-24.623-6.821-28.615-17.633c-4.048-10.962,2.273-29.354,12.692-37.104
	c7.984-5.94,16.579-5.462,25.089-1.875c7.424,3.129,13.151,8.361,13.13,17.133c-0.013,5.457,3.171,5.349,6.783,5.227
	c4.322-0.147,3.196-3.519,3.149-5.938c-0.042-2.126-0.54-4.28-1.094-6.354c-3.989-14.916-23.465-22.534-36.855-21.777
	c-14.545,0.822-23.828,9.493-29.704,21.919c-6.128,12.96-7.771,26.346,1.081,38.882c11.025,15.613,30.734,20.09,49.236,15.239
	c1.645-0.431,3.098-1.123,3.763-2.926c2.587-7.021,5.265-14.01,7.82-21.043c0.788-2.169,0.264-3.527-2.32-4.413
	c-7.542-2.587-15.002-5.435-22.396-8.422c-3.655-1.477-4.626,0.559-5.732,3.301c-1.206,2.987-0.551,4.598,2.605,5.606
	c4.42,1.413,8.741,3.148,13.067,4.842c1.515,0.593,2.973,1.13,2.438,3.553C652.583,1321.936,650.257,1323.975,640.547,1324.198z
	 M860.128,1450.741c0.059-7.554-2.016-13.005-5.798-17.93c-6.182-8.05-13.591-14.998-20.148-22.702
	c-2.113-2.483-3.829-2.515-6.16-0.36c-16.218,14.985-32.458,29.946-48.791,44.806c-2.226,2.025-2.421,3.483-0.368,5.666
	c6.03,6.41,11.767,13.104,17.935,19.376c8.362,8.504,18.207,12.673,30.273,8.917c5.287-1.646,10.222-4.065,14.471-7.6
	C851.472,1472.657,859.89,1463.43,860.128,1450.741z M1353.19,1307.301c0.049-11.104-3.796-20.864-10.64-29.422
	c-15.377-19.229-47.063-15.731-58.313,6.229c-6.281,12.262-4.256,24.292,0.846,36.071c5.995,13.842,20.535,25.657,41.61,20.878
	C1341.954,1337.596,1353.176,1323.736,1353.19,1307.301z M876.014,1544.296c14.993-0.556,25.088-8.784,32.824-20.593
	c8.798-13.428,8.484-29.53-0.552-40.998c-10.305-13.078-25.499-17.959-40.361-12.64c-8.582,3.071-15.032,9.08-20.089,16.489
	c-8.169,11.969-10.604,24.837-3.668,38.084C850.786,1537.28,861.792,1543.599,876.014,1544.296z M1096.4,1484.66
	c-1.051-16.083-9.586-27.442-23.079-35.494c-20.476-12.218-48.103,0.525-52.206,24.052c-2.769,15.879,4.336,27.897,15.856,37.6
	c11.159,9.397,24.099,12.3,37.692,6.072C1088.104,1510.733,1095.462,1499.815,1096.4,1484.66z M466.193,1243.369
	c-2.313,0.278-5.343,0.398-8.249,1.063c-2.734,0.625-5.405,1.67-7.985,2.801c-8.651,3.789-13.575,12.455-12.268,21.34
	c1.283,8.722,7.634,14.105,17.518,15.632c8.249,1.274,16.621,0.735,24.854,2.316c5.09,0.978,8.856,2.974,9.855,8.302
	c0.929,4.95-1.718,9.462-6.752,12.217c-6.403,3.505-13.21,4.414-20.314,2.975c-5.89-1.193-9.191-5.288-12.045-10.304
	c-2.108-3.704-5.409-0.766-7.998-0.024c-2.59,0.74-1.48,2.838-0.793,4.548c2.608,6.49,6.898,11.607,13.561,13.832
	c12.843,4.289,25.143,2.407,36.054-5.515c6.876-4.992,9.344-12.371,7.852-20.82c-1.482-8.389-7.033-12.852-14.886-14.998
	c-3.072-0.839-6.183-1.255-9.362-1.421c-6.314-0.33-12.668-0.085-18.927-1.282c-4.575-0.875-8.42-2.782-9.028-7.895
	c-0.62-5.216,2.678-8.438,6.871-10.568c11.16-5.669,19.433-3.599,27.161,6.16c2.539,3.205,5.404,0.279,8.075-0.375
	c2.8-0.686,1.359-2.466,0.886-3.918C487.292,1248.284,478.453,1242.977,466.193,1243.369z M1252.711,1303.254
	c0.739-5.221-1.281-8.018-3.511-9.978c-2.343-2.058-4.544,0.876-6.57,2.024c-12.148,6.88-24.17,13.984-36.358,20.789
	c-3.166,1.768-3.264,3.384-1.617,6.31c1.675,2.978,3.225,3.658,6.3,1.832c8.859-5.262,17.855-10.294,26.827-15.363
	c1.086-0.613,2.136-2.261,3.476-1.278c1.195,0.875,0.396,2.472,0.188,3.756c-2.685,16.586-5.39,33.168-8.047,49.758
	c-0.71,4.435-1.325,8.886-1.89,13.341c-0.485,3.829,1.659,6.708,4.001,9.261c1.16,1.265,2.745,0.07,4.063-0.692
	c14.523-8.39,29.039-16.795,43.618-25.087c2.645-1.504,3.501-2.795,1.89-5.864c-1.867-3.555-3.641-3.989-7.018-1.983
	c-10.429,6.191-20.999,12.146-31.537,18.152c-1.078,0.614-2.231,1.869-3.577,0.75c-1.058-0.88-0.436-2.191-0.26-3.303
	c1.064-6.738,2.173-13.471,3.254-20.206C1248.292,1330.845,1250.634,1316.216,1252.711,1303.254z M750.329,1396.992
	c0.861,0.549,1.822,0.93,2.468,1.609c5.723,6.021,11.385,12.102,17.077,18.151c1.626,1.729,1.418,3.47,0.417,5.467
	c-2.53,5.047-4.943,10.153-7.352,15.26c-1.304,2.766,1.983,9.395,5.444,10.095c3.23,0.654,3.154-2.909,3.972-4.647
	c9.546-20.298,18.77-40.747,28.351-61.029c1.986-4.205,1.725-6.885-1.568-10.448c-3.242-3.509-5.893-2.567-9.242-1.199
	c-20.316,8.297-40.637,16.583-60.986,24.797c-7.351,2.968-7.559,3.953-1.626,9.086c1.465,1.268,2.821,1.472,4.54,0.651
	c2.099-1.002,4.268-1.856,6.415-2.755C742.221,1400.361,746.209,1398.708,750.329,1396.992z M1155.65,1352.31
	c0.097,0.658,0.138,1.331,0.298,1.974c5.821,23.386,11.645,46.771,17.517,70.144c0.266,1.061,0.676,2.326,2.171,2.373
	c3.025,0.094,7.576-5.645,6.813-8.725c-1.279-5.16-2.446-10.37-4.133-15.401c-1.073-3.202-0.066-4.907,2.464-6.627
	c5.49-3.73,10.925-7.555,16.215-11.561c3.542-2.683,6.569-3.571,10.386-0.202c3.207,2.83,7.108,4.871,10.689,7.281
	c3.582,2.411,10.15,1.248,11.799-2.842c1.542-3.828-3.286-3.55-4.937-5.426c-0.32-0.364-0.795-0.601-1.215-0.87
	c-18.871-12.1-37.728-24.224-56.632-36.273C1163.418,1343.817,1155.698,1348.071,1155.65,1352.31z M549.114,1239.01
	c-3.385-1.381-5.015,0.335-6.096,3.239c-0.752,2.021-1.756,3.948-2.644,5.919c-8.803,19.554-17.603,39.108-26.413,58.659
	c-0.599,1.329-1.761,2.687-0.435,4.077c2.006,2.103,9.564,0.532,10.753-2.206c2.116-4.877,4.15-9.789,6.208-14.69
	c0.949-2.26,2.097-4.125,5.048-3.924c7.805,0.53,15.614,0.994,23.425,1.408c2.89,0.153,4.428,1.465,5.242,4.32
	c1.548,5.433,3.362,10.795,5.267,16.114c0.929,2.596,6.858,4.42,10.018,2.893c3.212-1.553,0.866-4.041,0.23-5.925
	c-7.068-20.949-14.307-41.84-21.361-62.794C556.796,1241.469,555.085,1237.525,549.114,1239.01z M998.442,1567.192
	c16.195-0.028,34.268-9.222,35.659-29.611c0.486-7.124-0.646-8.457-7.131-7.743c-4.193,0.462-3.458,3.038-3.392,5.725
	c0.247,9.925-4.409,16.951-13.53,20.602c-9.104,3.643-18.142,1.688-24.538-5.597c-6.193-7.054-9.837-15.338-11.212-24.64
	c-1.535-10.382,2.443-18.235,11.966-23.553c6.882-3.844,15.996-5.12,24.105,3.251c3.939,4.066,6.249-0.855,8.66-2.502
	c2.902-1.981-0.05-3.695-1.442-5.009c-8.244-7.782-17.967-10.016-28.655-6.54c-12.661,4.118-22.304,11.926-24.489,25.688
	c-2.857,17.993,4.298,32.523,17.957,43.989C987.23,1565.307,992.948,1567.581,998.442,1567.192z"/>
<path fill-rule="evenodd" clip-rule="evenodd" fill="#252E62" d="M435.772,1384.144c3.27,4.013,6.222,7.715,9.26,11.345
	c5.818,6.95,13.568,9.573,21.918,7.016c9.576-2.933,15.663,1.342,21.29,7.742c4.11,4.676,7.045,10.123,8.455,16.191
	c2.551,10.982-3.984,18.417-17.002,20.319c-22.128,3.235-39.918-11.852-44.002-32.76c-1.607-8.23-1.802-16.511-1.42-24.839
	C434.344,1387.529,434.576,1385.955,435.772,1384.144z"/>
<path fill-rule="evenodd" clip-rule="evenodd" fill="#252E62" d="M1500.069,1383.627c2.396,9.434,1.801,17.834,0.521,26.195
	c-2.166,14.152-8.07,25.967-21.443,32.837c-10.13,5.203-20.481,6.524-31.097,1.509c-7.657-3.617-10.472-7.846-9.006-16.271
	c1.939-11.148,7.815-19.96,18.22-25.252c2.487-1.266,5.068-1.604,7.73-0.697c13.696,4.661,23.078-1.454,30.628-12.207
	C1496.849,1387.992,1498.134,1386.284,1500.069,1383.627z"/>
<path fill-rule="evenodd" clip-rule="evenodd" fill="#C6AD5E" d="M939.908,1080.886c4.191-8.528,9.834-16.184,14.715-24.298
	c1.822-3.028,2.437-5.143-0.953-7.519c-3.384-2.371-6.627-5.073-9.452-8.079c-3.816-4.061-8.012-3.968-12.683-2.268
	c-5.612,2.042-11.268,3.883-16.354,7.232c-4.684,3.086-6.911,7.366-8.063,12.63c-1.636,7.479-3.672,14.873-5.276,22.358
	c-0.766,3.575-2.573,3.801-5.357,2.497c-26.664-12.493-53.024-25.568-78.146-40.997c-17.603-10.811-34.877-22.068-49.252-37.164
	c-9.604-10.086-16.386-22.166-23.675-33.855c-8.634-13.847-16.02-28.375-22.741-43.258c-1.881-4.165-0.896-5.783,3.061-7.412
	c10.097-4.158,14.022-2.622,18.675,7.005c16.881,34.929,38.028,66.677,68.48,91.509c12.637,10.304,27.485,16.736,41.499,24.637
	c7.531,4.246,15.117,8.396,22.719,12.515c1.106,0.6,2.243,1.918,3.602,1.2c1.478-0.781,0.741-2.389,0.64-3.633
	c-1.925-23.623,5.687-43.871,21.599-61.19c17.511-19.058,29.589-41.236,37.667-65.696c0.574-1.741,2.477-4.339-2.077-3.941
	c-1.644,0.144-2.488-2.135-2.078-3.87c0.301-1.276,3.123-2.299,0.386-3.745c-2.659-1.405-4.69-4.689-8.432-3.164
	c-2.31,0.941-4.695,1.788-6.829,3.046c-2.465,1.454-7.675,2.667-1.209,6.142c1.711,0.92,1.11,2.518,0.13,3.878
	c-1.027,1.424-2.416,1.475-3.407,0.365c-5.834-6.529-11.454-3.012-17.175,0.133c-1.842,1.013-4.098,2.583-5.564-0.276
	c-1.509-2.941,1.218-3.711,3.098-4.526c2.149-0.932,4.242-1.852,5.996-3.741c-3.37-3.684-6.75-5.478-11.69-2.469
	c-4.094,2.493-8.637,4.252-13,6.293c-2.73,1.276-3.337,2.584-0.349,4.346c1.565,0.923,3.005,2.06,4.482,3.128
	c1.255,0.909,1.647,2.066,0.795,3.457c-0.951,1.553-2.266,1.904-3.815,0.936c-2.259-1.411-4.646-2.683-6.676-4.376
	c-2.886-2.409-5.629-2.415-8.68-0.496c-1.117,0.703-2.415,1.118-3.63,1.666c-1.555,0.7-2.915,0.717-3.762-1.073
	c-0.822-1.738-0.123-3.055,1.447-3.665c6.074-2.356,2.528-4.113-0.17-6.325c-4.582-3.756-8.818-4.785-14.334-1.194
	c-5.386,3.507-11.535,5.849-17.376,8.645c-1.993,0.954-3.44,1.186-5.632-0.786c-4.154-3.739-9.138-6.56-13.808-9.717
	c-0.519-0.351-1.348-0.73-1.842-0.556c-6.272,2.211-12.134,5.313-17.943,8.509c-1.052,0.579-0.571,1.49,0.09,2.044
	c0.885,0.74,1.95,1.262,2.87,1.965c1.536,1.173,3.822,2.179,2.104,4.685c-1.729,2.522-3.697,0.773-5.145-0.304
	c-4.319-3.213-8.545-5.914-13.892-2.079c-1.114,0.799-2.287,0.445-3.028-0.688c-0.814-1.243-0.923-2.706,0.373-3.583
	c3.84-2.597,1.374-3.687-0.975-5.109c-2.701-1.635-5.396-3.336-7.851-5.311c-5.549-4.465-11.155-7.036-17.783-2.054
	c-1.871,1.406-3.594,0.6-4.598-1.242c-1.305-2.394,1.022-2.831,2.356-3.449c3.604-1.671,6.241-3.19,0.684-5.921
	c-1.603-0.788-2.614-2.188-1.396-4.092c1.244-1.944,2.821-1.217,4.365-0.439c0.444,0.223,0.95,0.417,1.275,0.765
	c4.641,4.959,9.414,3.404,14.257,0.366c0.839-0.527,1.781-0.893,2.682-1.319c1.471-0.697,2.759-1.027,3.696,0.908
	c0.821,1.697,0.347,2.674-1.042,3.807c-2.002,1.632-6.648,1.098-5.74,4.79c0.482,1.961,3.993,3.178,6.136,4.731
	c0.135,0.098,0.264,0.203,0.403,0.295c14.234,9.388,15.227,9.343,29.695,0.325c2.616-1.63,1.939-2.49-0.061-3.812
	c-6.651-4.394-13.253-8.862-19.892-13.274c-1.551-1.031-3.389-1.853-1.989-4.235c1.565-2.666,3.349-1.307,5.025-0.207
	c7.223,4.743,14.546,9.351,21.57,14.375c3.175,2.271,5.95,2.334,9.172,0.651c3.247-1.697,6.511-3.372,9.84-4.898
	c1.646-0.754,3.563-1.546,4.755,0.784c1.244,2.433-0.712,3.326-2.293,4.151c-2.504,1.308-5.117,2.409-7.688,3.588
	c-2.763,1.266-3.178,2.732-0.404,4.492c0.141,0.089,0.282,0.178,0.417,0.274c9.156,6.536,9.172,6.567,20.453,0.798
	c2.882-1.474,7.962-1.908,8.02-4.813c0.063-3.149-4.975-4.195-7.659-6.322c-1.034-0.82-2.29-1.363-3.31-2.197
	c-1.092-0.893-1.664-1.911-0.638-3.421c1.061-1.561,2.168-1.957,3.73-0.94c3.897,2.536,7.886,4.947,11.636,7.686
	c2.748,2.007,5.196,2.332,8.253,0.65c4.508-2.48,9.225-4.579,13.835-6.876c1.013-0.505,1.952-1.16,2.875-1.715
	c-0.211-1.3-1.132-1.802-1.96-2.32c-1.805-1.127-1.992-2.447-0.785-4.161c1.257-1.785,2.626-1.026,3.891-0.201
	c6.399,4.178,12.832,8.31,19.103,12.674c2.988,2.08,5.622,3.115,8.992,0.718c1.997-1.42,4.442-2.238,6.739-3.2
	c1.517-0.636,2.987-0.483,3.858,1.165c0.95,1.8-0.093,2.784-1.574,3.541c-0.739,0.377-1.54,0.671-2.2,1.157
	c-1.574,1.157-4.752,0.717-4.415,3.746c0.213,1.911,6.506,4.092,8.545,3.058c3.671-1.861,9.963-2.732,10.271-5.92
	c0.327-3.375-5.734-4.98-9.14-7.192c-2.507-1.628-4.831-3.539-7.352-5.143c-1.628-1.035-2.677-2.148-1.51-4.012
	c1.187-1.894,2.873-1.373,4.358-0.412c5.865,3.796,11.779,7.527,17.486,11.55c2.682,1.89,5.044,2,7.863,0.575
	c4.003-2.023,8.06-3.963,12.197-5.691c2.251-0.94,2.8-2.51,2.92-4.67c1.183-21.211-1.571-41.813-8.614-61.93
	c-3.438-9.819-12.046-12.371-20.06-15.59c-17.321-6.959-35.031-12.653-53.666-15.223c-12.134-1.673-23.249-1.161-33.407,7.171
	c-9.066,7.437-20.013,11.756-31.221,15.175c-4.605,1.405-8.395-1.41-12.41-2.639c-9.568-2.929-19.167-5.706-29.128-6.771
	c-12.508-1.336-22.23,5.317-26.154,17.219c-6.347,19.25-9.584,38.746-5.342,58.947c1.202,5.722,3.35,11.131,5.256,16.623
	c0.581,1.673,1.843,3.535,0.177,5.104c-1.875,1.766-3.396-0.148-4.825-1.063c-5.177-3.313-10.231-6.818-15.438-10.082
	c-2.189-1.373-3.136-3.3-3.713-5.64c-10.118-41.001,5.178-77.07,39.768-97.812c4.717-2.829,9.838-4.845,14.987-6.772
	c3.806-1.424,7.504-0.809,11.269,0.198c7.398,1.978,14.824,3.856,22.251,5.725c1.383,0.348,3.105,1.648,4.178,0.237
	c1.213-1.596-0.599-3.032-1.285-4.455c-8.329-17.274-20.104-31.974-33.566-45.498c-7.384-7.418-14.121-15.479-21.474-22.931
	c-3.288-3.333-2.755-5.458,0.709-7.807c0.944-0.641,1.626-1.668,2.57-2.312c3.419-2.335,2.841-4.978,1.21-8.209
	c-4.867-9.646-10.308-19.021-14.271-29.103c-1.211-3.082-2.228-6.302-2.819-9.552c-0.912-5.007,0.964-7.103,6.138-7.323
	c3.86-0.164,7.659,0.417,11.29,1.731c2.188,0.793,3.516,0.289,4.145-1.969c0.088-0.318,0.229-0.633,0.402-0.913
	c6.551-10.579,6.895-19.805-3.125-29.318c-6.743-6.402-11.6-14.922-16.082-23.314c-0.471-0.882-1.106-1.709-1.399-2.646
	c-1.05-3.357-3.991-7.204-0.159-10.049c3.48-2.584,7.108-0.128,9.907,2.285c9.337,8.049,19.651,14.769,29.579,22.008
	c2.464,1.797,5.096,5.695,7.728,4.413c2.595-1.264,1.254-5.789,1.475-8.848c1.37-18.939,2.523-37.895,3.747-56.845
	c0.083-1.288-0.089-2.637,1.317-4.406c4.069,6.235,7.952,12.158,11.808,18.098c7.606,11.714,15.192,23.442,22.807,35.151
	c0.781,1.202,1.264,3.261,3.027,2.829c1.627-0.399,1.382-2.473,1.642-3.877c2.333-12.608,4.613-25.232,9.583-37.15
	c3.378-8.1,6.792-8.818,12.42-2.097c7.024,8.385,12.01,17.945,14.414,28.729c0.289,1.298,0.699,2.573,1.12,3.837
	c0.344,1.032,0.092,2.676,1.634,2.709c1.411,0.031,1.546-1.492,1.981-2.544c5.585-13.529,11.107-27.086,16.825-40.559
	c1.315-3.1,1.989-6.611,5.399-10.137c0,8.01,0.391,14.935-0.084,21.799c-0.898,12.995-0.555,25.954,0.143,38.925
	c0.058,1.082-0.378,2.555,1.216,2.884c1.318,0.272,2.05-0.845,2.826-1.712c6.352-7.1,11.207-15.256,16.359-23.2
	c2.594-3.999,5.057-8.083,7.774-12.443c2.236,1.89,1.583,3.98,1.591,5.803c0.049,11-0.004,22,0.05,32.999
	c0.008,1.576-0.759,3.744,1.005,4.554c2.013,0.924,3.17-1.175,4.522-2.326c3.252-2.767,6.531-5.501,10.92-7.658
	c-1.229,4.332-2.454,8.664-3.688,12.994c-1.001,3.514-1.834,7.088-3.068,10.519c-1.305,3.625,0.329,4.487,3.485,4.456
	c4.166-0.041,8.339,0.128,12.498-0.044c3.738-0.155,5.113,1.143,4.396,5.01c-2.623,14.136-3.836,28.489-3.185,42.782
	c0.846,18.549-4.764,34.86-15.026,49.722c-11.811,17.103-24.186,33.815-36.328,50.689c-4.306,5.984-4.199,5.775,2.753,8.458
	c4.553,1.757,8.482,1.364,12.954-0.363c10.388-4.012,20.427-8.949,31.192-11.972c14.797-4.155,30.002-6.077,45.156-8.284
	c3.783-0.551,7.639-0.869,11.313-1.848c4.767-1.271,5.017-2.417,1.735-5.917c-6.141-6.55-11.939-13.365-17.362-20.536
	c-10.533-13.929-14.305-28.949-10.806-46.454c3.758-18.802,8.264-37.372,13.077-55.908c2.094-8.064,1.49-16.548,2.115-24.84
	c0.388-5.149,0.889-10.309,0.883-15.464c-0.006-5.121,2.098-4.411,5.289-2.527c7.454,4.398,14.769,8.991,21.608,14.311
	c0.896,0.696,1.739,1.974,2.967,1.527c1.6-0.583,1.091-2.254,1.096-3.511c0.03-7.833-0.041-15.667,0.021-23.499
	c0.014-1.739-0.487-3.608,0.831-5.542c3.292,3.09,5.066,7.041,7.363,10.583c5.606,8.644,11.068,17.382,16.589,26.082
	c0.594,0.936,0.85,2.41,2.413,2.016c1.15-0.29,1.087-1.574,1.39-2.459c2.845-8.335,5.621-16.693,8.457-25.032
	c0.839-2.468,1.805-4.893,3.001-8.113c2.82,3.897,3.311,7.762,4.642,11.21c2.396,6.202,4.438,12.55,6.36,18.919
	c0.951,3.153,2.14,3.329,4.435,1.284c5.834-5.2,11.723-10.338,17.627-15.457c0.825-0.715,1.61-2.045,2.927-1.423
	c1.34,0.633,0.688,2.094,0.698,3.168c0.064,6.666,0.058,13.333,0.03,20c-0.014,3.297,1.016,3.868,3.723,1.793
	c8.178-6.271,16.441-12.433,24.68-18.626c1.578-1.186,3.191-2.322,4.707-3.422c1.807,1.033,1.2,2.519,1.224,3.729
	c0.083,4.165-0.055,8.335,0.063,12.498c0.122,4.313-1.684,9.55,0.738,12.678c2.312,2.987,7.729,2.003,11.827,2.43
	c3.915,0.407,2.987,2.136,1.26,4.117c-4.919,5.639-9.634,11.485-14.899,16.782c-3.077,3.095-2.827,5.268-0.345,8.411
	c4.008,5.077,7.623,10.463,11.43,15.7c1.215,1.67,2.106,3.369,1.575,5.546c-3.549,14.547-6.646,29.292-14.238,42.423
	c-4.625,7.999-12.378,13.335-18.608,19.975c-10.129,10.795-20.527,21.337-30.833,31.966c-2.322,2.394-3.184,3.854,1.058,5.489
	c17.225,6.641,34.306,13.651,51.425,20.562c5.7,2.301,5.599,2.298,2.433,7.28c-3.447,5.423-8.203,10.06-9.337,16.885
	c-0.477,2.867-0.17,4.693,2.231,6.402c11.032,7.853,7.83,8.406,16.051-1.791c2.716-3.369,5.578-6.643,8.008-10.209
	c1.763-2.587,2.98-2.667,4.774-0.2c9.283,12.763,18.755,25.401,26.382,39.269c1.537,2.796,2.29,5.795,1.411,9.138
	c-1.353,5.148-1.854,10.584-3.729,15.512c-1.738,4.568-5.226,8.424-9.968,10.22c-4.685,1.775-7.288,7.558-4.288,11.638
	c1.448,1.97,2.577,3.519,2.063,6.147c-0.392,2,0.479,3.866,2.524,5c3.246,1.799,3.752,4.576,3.005,8.062
	c-1.78,8.301-3.626,16.572-6.029,24.726c-1.853,6.287-5.683,10.662-11.286,13.925c-20.403,11.884-40.769,23.837-61.06,35.912
	c-29.327,17.451-55.147,39.377-79.675,62.916c-6.469,6.208-13.371,12.049-18.03,19.889c-1.884,3.17-3.616,1.229-5.214-0.091
	c-6.917-5.716-13.893-11.372-20.58-17.35c-3.031-2.71-5.358-2.846-8.594-0.396c-6.631,5.02-13.534,9.677-20.299,14.52
	c-1.359,0.974-2.571,2.197-4.467,1.576L939.908,1080.886z M947.588,903.108c-3.86,1.707-8.511,2.319-9.828,5.671
	c-0.713,1.815,4.304,3.3,6.607,5.105c0.522,0.41,0.971,0.917,1.5,1.317c1.995,1.505,3.808,1.702,6.27,0.406
	c7.209-3.796,14.646-7.157,21.956-10.766c1.949-0.962,3.623-1.268,5.548,0.165c2.528,1.882,5.247,3.509,7.896,5.227
	c2.757,1.787,2.999,3.331-0.268,4.858c-4.065,1.901-8.026,4.027-12.105,5.896c-1.71,0.783-3.092,1.583-2.16,3.661
	c1.001,2.231,2.519,0.81,3.754,0.234c5.271-2.458,10.551-4.908,15.74-7.532c2.358-1.192,4.314-1.102,6.5,0.401
	c2.432,1.672,1.57,3.737,1.113,5.816c-2.395,10.883-4.442,21.859-7.302,32.619c-3.542,13.33-7.412,26.553-15.624,38.095
	c-5.488,7.715-10.044,16.052-13.052,25.15c-0.884,2.672-0.585,4.691,1.212,6.856c6.578,7.93,13.104,15.907,19.479,23.999
	c2.097,2.662,3.714,3.008,6.513,0.82c27.336-21.37,53.146-44.338,74.629-71.752c11.77-15.02,21.887-30.971,25.657-50.188
	c1.254-6.393,3.318-12.626,5.217-19.694c2.884,9.464,3.876,10.052,13.043,8.152c1.078-0.223,1.927,0.007,2.861,0.389
	c6.145,2.509,10.507-0.561,10.176-7.303c-0.071-1.447,0.152-2.39,1.061-3.56c4.181-5.386,2.446-10.956-4.031-12.916
	c-1.393-0.422-2.182-0.942-2.975-2.188c-3.593-5.644-9.438-5.549-12.988,0.068c-0.475,0.751-0.464,2.259-1.878,1.762
	c-1.16-0.408-0.976-1.635-0.781-2.605c0.295-1.467,0.68-2.919,1.091-4.36c2.835-9.955,4.861-20.06,5.745-30.383
	c1.621-18.932-2.438-35.173-19.749-46.306c-34.285-22.048-71.154-28.662-110.863-19.861c-4.004,0.887-8.1,1.583-12.022,3.671
	c2.015,2.076,4.341,2.915,6.508,4.03c9.053,4.657,17.673,9.987,25.051,17.074c9.554,9.178,16.993,19.769,15.59,33.653
	c-1.37,13.557-4.193,26.966-6.385,40.438c-0.379,2.328-1.379,3.283-3.733,1.854c-1.253-0.76-2.773-2.745-4.104-0.274
	c-1.229,2.28,0.818,3.162,2.311,4.199c5.401,3.753,4.562,11.103-1.258,14.267c-4.466,2.429-6.89-0.929-9.764-2.751
	c-7.193-4.559-7.122-4.671-0.036-9.069c0.142-0.088,0.282-0.178,0.429-0.257c1.128-0.609,1.864-1.364,1.313-2.799
	c-0.658-1.712-1.914-1.695-3.257-1.11c-1.98,0.863-4.063,1.628-5.82,2.841c-3.193,2.203-5.929,2.251-8.978-0.375
	c-2.247-1.936-4.954-3.337-7.461-4.969c-1.254-0.817-2.645-2.004-3.897-0.269c-1.402,1.943,0.249,3.029,1.604,4.012
	c1.48,1.075,3.023,2.066,4.559,3.065c1.221,0.795,3.139,1.288,2.854,3.029c-0.248,1.517-2.019,2.044-3.391,2.683
	c-4.373,2.038-8.655,4.292-13.115,6.112c-2.472,1.009-5.074,4.329-7.509,2.253C945.125,910.042,947.902,906.803,947.588,903.108z
	 M890.271,653.693c-2.28,0.128-3.644,1.417-5.128,2.392c-3.747,2.461-7.428,5.023-11.181,7.475c-4.587,2.997-5.01,2.815-6.499-2.583
	c-0.751-2.724-1.425-5.47-2.17-8.197c-0.731-2.672-1.955-3.301-4.05-1.042c-3.276,3.533-6.667,6.96-9.952,10.485
	c-1.879,2.017-3.262,2.636-4.725-0.53c-1.172-2.534-3.081-4.717-4.415-7.19c-0.843-1.564-2.061-1.557-2.598-0.424
	c-2.857,6.023-7.672,4.882-12.614,3.857c-1.442-0.299-2.991-0.047-4.485-0.143c-2.794-0.178-3.92,1.043-3.67,3.853
	c0.487,5.471,0.772,10.96,1.269,16.431c0.322,3.543-0.716,4.992-4.516,3.94c-3.838-1.063-7.807-1.643-11.688-2.56
	c-2.953-0.697-4.354,0.361-4.743,3.352c-0.623,4.784-1.709,9.518-2.121,14.314c-0.484,5.646-2.435,10.182-7.52,13.105
	c-3.338,1.919-2.923,4.042-0.653,6.828c7.031,8.633,13.842,17.445,20.707,26.213c7.183,9.174,7.167,9.186-4.329,11.962
	c-4.177,1.008-4.121,1.721-1.783,5.049c8.232,11.717,21.391,13.764,33.632,17.647c2.941,0.933,3.829-0.659,3.821-3.391
	c-0.042-15.159-0.073-30.318,0.033-45.477c0.024-3.413-1.594-4.294-4.61-4.221c-4.662,0.112-9.329-0.005-13.992,0.057
	c-2.479,0.033-4.64-0.59-4.22-3.489c0.625-4.315-2.515-9.336,2.183-12.859c0.662-0.496,1.948-0.195,2.946-0.201
	c3.165-0.018,6.33-0.002,9.495-0.006c8.15-0.01,8.15-0.011,8.157-8.192c0.009-11.094,0.009-11.12,11.068-11.087
	c10.145,0.03,8.913-0.879,9.008,9.21c0.105,11.146-1.297,9.953,10.251,10.086c13.361,0.154,11.303-1.962,11.561,12.296
	c0.054,2.934-1.126,4.3-4.126,4.232c-3.996-0.09-8.014,0.225-11.989-0.075c-4.327-0.325-5.876,1.179-5.794,5.631
	c0.24,13.156-0.016,26.319,0.12,39.478c0.104,10.095-2.236,9.908,10.175,9.265c5.822-0.301,12.892-1.187,16.153-6.256
	c8.125-12.635,19.942-22.871,24.606-37.809c0.907-2.905,1.663-5.464,0.095-8.05c-3.771-6.214-3.011-11.523,2.669-16.113
	c0.506-0.409,0.794-1.077,1.267-1.539c3.079-3.007,1.767-4.607-1.809-4.905c-4.719-0.393-4.88-3.001-3.683-6.539
	c0.8-2.363,1.674-4.704,2.403-7.089c0.72-2.354,0.3-3.899-2.453-4.93c-8.849-3.313-8.801-3.443-7.258-12.945
	c0.08-0.493,0.157-0.989,0.273-1.474c0.699-2.935-0.693-3.546-3.271-3.082c-2.784,0.502-5.62,0.739-8.388,1.313
	c-4.021,0.833-5.273-0.461-4.04-4.45C888.849,661.578,890.363,657.871,890.271,653.693z M1002.775,706.286
	c-0.376,4.038,0.321,8.881,2.022,13.696c4.095,11.59,7.94,23.269,11.89,34.911c0.719,2.12,1.822,3.817,4.074,4.718
	c12.23,4.892,24.209,11.731,37.841,4.213c1.285-0.709,2.933-0.749,4.245-1.425c2.794-1.439,6.817-0.443,8.643-3.319
	c3.797-5.98,9.801-9.317,14.95-13.706c4.019-3.425,6.875-8.287,7.811-13.082c1.1-5.636-2.134-11.167-4.625-16.389
	c-0.189-0.397-1.184-0.586-1.798-0.576c-4.385,0.075-5.281-2.512-5.002-6.22c0.339-4.485-2.605-7.689-6.233-7.702
	c-8.597-0.03-12.563-4.28-13.947-12.075c-0.028-0.159-0.143-0.301-0.2-0.456c-1.076-2.869-2.973-3.06-4.964-1.159
	c-2.999,2.864-5.849,5.896-8.613,8.989c-1.926,2.155-3.202,2.361-4.882-0.366c-2.961-4.807-6.174-9.466-9.432-14.082
	c-1.809-2.563-3.611-2.92-4.764,0.659c-0.967,3.003-2.138,5.945-3,8.976c-3.088,10.85-3.053,10.86-13.238,6.509
	c-0.153-0.065-0.302-0.14-0.456-0.204C1002.801,693.922,1002.801,693.922,1002.775,706.286z M1144.664,888.362
	c-0.935,0.003-12.889,7.371-13.765,9.207c-0.071,0.148-0.091,0.321-0.152,0.475c-1.113,2.772,1.773,16.578,3.908,18.632
	c0.237,0.229,0.572,0.359,0.798,0.596c4.763,4.997,10.978-0.86,16.011,2.133c0.076,0.045,0.393-0.11,0.42-0.216
	c0.995-3.941,8.082-4.203,6.071-10.071c-0.192-0.561,0.924-1.665,1.567-2.399c1.959-2.237,2.206-4.464,1.003-7.306
	c-2.479-5.86-9.243-6.615-12.769-11.165C1147.525,887.948,1146.49,888.271,1144.664,888.362z M890.074,908.957
	c0.013-0.977-0.676-1.427-1.378-1.898c-2.622-1.758-5.217-3.554-7.848-5.297c-1.319-0.874-2.524-1.033-4.125-0.151
	c-4.505,2.481-9.177,4.657-13.764,6.993c-1.596,0.813-4.22,0.965-4.405,2.836c-0.22,2.219,2.393,2.886,4.081,3.762
	c2.902,1.505,4.949,5.436,9.162,3.43c5.401-2.571,10.8-5.146,16.189-7.741C888.863,910.468,889.873,910.133,890.074,908.957z"/>
<path fill-rule="evenodd" clip-rule="evenodd" fill="#C6AD5E" d="M1038.617,484.204c4.164,0.005,8.331,0.097,12.491-0.026
	c2.863-0.085,4.35,0.836,4.313,3.959c-0.092,7.661,0.003,15.324-0.017,22.986c-0.004,1.679-0.375,3.067-1.93,4.29
	c-15.461,12.154-38.45,16.169-56.29,3.609c-14.123-9.943-17.274-24.855-14.905-40.865c4.281-28.931,33.001-42.927,58.885-29.096
	c6.034,3.224,9.63,8.571,11.674,14.938c0.609,1.9,1.558,4.589-1.894,5.048c-2.735,0.363-6.167,3.603-7.942-1.402
	c-3.873-10.919-12.653-14.136-22.967-13.804c-12.798,0.412-20.815,6.62-24.594,17.551c-3.895,11.265-3.897,22.411,2.179,32.771
	c6.984,11.91,23.878,15.943,37.671,9.669c9.469-4.307,9.893-5.167,9.259-15.529c-0.181-2.96-1.304-4.175-4.246-4.112
	c-4.828,0.103-9.668-0.149-14.488,0.073c-3.993,0.184-4.694-1.861-4.665-5.235c0.028-3.2,0.767-5.063,4.476-4.881
	C1029.947,484.362,1034.286,484.198,1038.617,484.204z"/>
<path fill-rule="evenodd" clip-rule="evenodd" fill="#C6AD5E" d="M1074.511,474.232c0-7.661,0.216-15.331-0.084-22.979
	c-0.171-4.333,1.147-5.833,5.618-5.778c4.282,0.053,5.345,1.632,5.296,5.616c-0.177,14.487-0.243,28.98,0.01,43.465
	c0.125,7.179,0.808,14.302,7.76,18.983c12.837,8.644,30.823,0.731,32.139-14.464c1.353-15.617,0.316-31.288,0.571-46.933
	c0.104-6.413,0.569-6.774,6.789-6.58c3.011,0.094,4.162,1.247,4.104,4.196c-0.335,17.308,0.749,34.638-0.634,51.927
	c-1.035,12.944-8.222,21.034-20.92,23.901c-5.922,1.337-11.915,1.441-17.866,0.336c-14.972-2.78-22.255-11.766-22.726-28.209
	c-0.223-7.821-0.038-15.654-0.038-23.481C1074.523,474.232,1074.518,474.232,1074.511,474.232z"/>
<path fill-rule="evenodd" clip-rule="evenodd" fill="#C6AD5E" d="M698.828,473.997c-0.007-7.993,0.192-15.992-0.081-23.975
	c-0.164-4.778,2.786-4.33,5.87-4.436c3.265-0.112,5.314,0.379,5.25,4.528c-0.21,13.651-0.081,27.307-0.08,40.961
	c0,1.166,0.04,2.332,0.007,3.497c-0.622,22.44,16.532,24.619,30.457,20.143c7.33-2.356,9.418-9.253,9.602-16.108
	c0.423-15.807,0.42-31.631,0.26-47.446c-0.046-4.496,1.56-5.663,5.805-5.676c4.222-0.013,5.406,1.485,5.352,5.545
	c-0.196,14.484,0.042,28.973-0.129,43.458c-0.105,8.915-1.174,17.561-8.168,24.327c-11.175,10.811-36.664,10.421-47.146-0.989
	c-5.528-6.018-6.688-13.623-6.94-21.352C698.645,488.989,698.835,481.49,698.828,473.997z"/>
<path fill-rule="evenodd" clip-rule="evenodd" fill="#C6AD5E" d="M807.376,525.082c-8.158,0-16.319,0.104-24.474-0.067
	c-2.301-0.048-5.804,1.479-6.686-1.376c-1.029-3.329-1.407-7.289,1.132-10.515c5.445-6.918,10.92-13.813,16.433-20.677
	c8.74-10.881,17.524-21.727,26.279-32.596c0.815-1.012,2.21-1.973,1.718-3.392c-0.649-1.873-2.528-1.201-3.927-1.206
	c-10.989-0.039-21.979-0.122-32.965,0.053c-3.466,0.055-4.671-1.109-4.636-4.575c0.034-3.438,0.815-5.205,4.739-5.163
	c14.817,0.155,29.636,0.008,44.454,0.104c2.514,0.017,6.238-1.382,7.25,1.447c1.295,3.623,1.324,7.746-1.648,11.287
	c-5.98,7.125-11.722,14.451-17.572,21.686c-8.46,10.463-16.932,20.917-25.391,31.381c-0.693,0.857-2.168,1.513-1.57,2.82
	c0.691,1.512,2.359,0.876,3.583,0.881c12.987,0.05,25.974,0.096,38.96-0.025c3.537-0.033,5.837,0.064,5.911,4.845
	c0.078,5.046-2.38,5.202-6.117,5.135C824.36,524.978,815.867,525.082,807.376,525.082z"/>
<path fill-rule="evenodd" clip-rule="evenodd" fill="#C6AD5E" d="M1250.936,525.089c-4.099,1.15-6.192-1.444-7.581-5.609
	c-1.681-5.036-3.837-9.912-5.642-14.909c-0.923-2.556-2.46-3.587-5.218-3.54c-8.151,0.141-16.309,0.179-24.458,0.012
	c-3.178-0.065-4.881,1.112-5.878,4.086c-1.844,5.504-3.928,10.928-5.927,16.38c-1.078,2.941-9.132,5.272-11.342,3.166
	c-1.563-1.489-0.137-3.157,0.394-4.579c3.653-9.805,7.403-19.574,11.163-29.339c5.252-13.642,10.7-27.211,15.707-40.941
	c1.421-3.896,3.816-4.312,7.225-4.271c3.631,0.043,6.528,0.079,8.262,4.441c9.199,23.15,18.775,46.15,28.146,69.233
	C1258.145,525.028,1258.02,525.079,1250.936,525.089z M1219.819,456.775c-3.986,10.938-7.702,21.065-11.354,31.215
	c-0.602,1.671-2.381,4.058,1.492,4.095c6.652,0.064,13.307,0.027,19.961,0.005c1.811-0.006,2.881-0.547,2.063-2.719
	C1227.958,478.689,1223.994,467.983,1219.819,456.775z"/>
<path fill-rule="evenodd" clip-rule="evenodd" fill="#C6AD5E" d="M1203.507,732.459c-0.696,5.206-3.391,9.689-5.595,14.292
	c-5.881,12.281-11.949,24.477-18.21,36.569c-2.242,4.331-2.465,7.555,2.117,10.403c2.509,1.56,4.696,3.693,6.833,5.769
	c1,0.971,3.477,2.057,1.375,3.868c-1.643,1.416-3.218,4.404-6.238,1.89c-2.423-2.018-5.007-3.858-7.301-6.01
	c-2.245-2.106-3.698-1.64-4.979,0.891c-0.675,1.333-1.482,2.6-2.139,3.941c-1.055,2.157-2.401,2.414-4.369,1.048
	c-4.634-3.217-9.279-6.426-14.044-9.443c-2.426-1.536-2.726-3.09-0.949-5.225c0.424-0.509,0.757-1.092,1.153-1.625
	c4.501-6.061,4.594-6.16-1.04-11.295c-3.005-2.74-2.305-6.023-1.99-9.272c0.198-2.053,1.531-1.878,2.82-0.841
	c2.2,1.771,4.587,3.386,6.469,5.455c2.788,3.067,4.479,1.983,6.56-0.792c10.549-14.072,21.215-28.057,31.846-42.067
	c1.193-1.572,2.25-3.58,4.769-2.348C1202.528,728.613,1203.741,730.111,1203.507,732.459z"/>
<path fill-rule="evenodd" clip-rule="evenodd" fill="#C6AD5E" d="M902.535,507.47c3.316-12.959-4.064-22.258-10.759-31.875
	c-5.979-8.591-11.613-17.423-17.574-26.028c-1.913-2.761-1.505-3.677,1.79-3.957c5.609-0.476,9.999,0.175,13.196,6.088
	c4.804,8.887,10.77,17.145,16.238,25.672c2.986,4.657,3.012,4.676,5.944,0.221c6.122-9.299,12.223-18.612,18.309-27.935
	c2.244-3.438,9.099-5.666,12.657-3.798c2.794,1.466,0.534,3.11-0.338,4.389c-7.026,10.302-13.763,20.833-21.351,30.708
	c-5.555,7.229-8.639,14.637-7.536,23.833c0.531,4.434,0.108,8.982,0.117,13.478c0.006,3.593,0.927,7.126-5.194,7.033
	c-5.616-0.085-5.736-2.798-5.537-6.841C902.677,514.804,902.535,511.134,902.535,507.47z"/>
<path fill-rule="evenodd" clip-rule="evenodd" fill="#C6AD5E" d="M632.875,485.312c0.003-11.645,0.201-23.295-0.099-34.933
	c-0.113-4.393,1.922-4.845,5.402-4.827c3.588,0.019,5.926,0.342,5.875,5.037c-0.218,19.794,0.019,39.593-0.178,59.388
	c-0.042,4.208,1.327,5.423,5.41,5.313c9.476-0.255,18.966,0.053,28.443-0.155c3.731-0.082,4.989,1.257,4.942,4.909
	c-0.044,3.407-0.756,5.163-4.722,5.106c-13.639-0.195-27.283-0.155-40.922-0.014c-3.34,0.035-4.247-1.226-4.209-4.391
	C632.957,508.936,632.873,497.123,632.875,485.312z"/>
<path fill-rule="evenodd" clip-rule="evenodd" fill="#C6AD5E" d="M1170.293,485.496c-0.004,11.663-0.151,23.329,0.079,34.987
	c0.076,3.876-1.305,5.012-4.933,4.666c-3.062-0.292-6.277,0.77-6.228-4.508c0.22-23.491,0.171-46.985,0.022-70.477
	c-0.028-4.581,2.589-4.539,5.824-4.587c3.188-0.048,5.396,0.201,5.316,4.433C1170.15,461.834,1170.297,473.667,1170.293,485.496z"/>
<path fill-rule="evenodd" clip-rule="evenodd" fill="#C6AD5E" d="M714.313,904.405c4.905,3.137,8.524,5.445,12.136,7.764
	c2.349,1.507,1.801,2.545-0.366,3.819c-6.3,3.703-6.976,3.54-9.359-3.336C715.968,910.472,715.419,908.22,714.313,904.405z"/>
<path fill-rule="evenodd" clip-rule="evenodd" fill="#C6AD5E" d="M746.716,921.032c3.877,2.425,7.784,4.807,11.619,7.297
	c1.462,0.949,2.474,1.997,1.081,4.052c-1.381,2.037-2.578,1.435-4.145,0.529C750.733,930.287,748.884,925.644,746.716,921.032z"/>
<path fill-rule="evenodd" clip-rule="evenodd" fill="#C6AD5E" d="M939.818,1080.811c-0.048,0.256-0.095,0.512-0.143,0.766
	c-0.022-0.107-0.093-0.238-0.056-0.32c0.063-0.137,0.193-0.243,0.292-0.366C939.908,1080.886,939.818,1080.811,939.818,1080.811z"/>
<path fill-rule="evenodd" clip-rule="evenodd" fill="#C6AD5E" d="M1422.267,1293.906c-1.397-7.104-2.499-13.115-3.773-19.09
	c-2.219-10.41-4.468-20.814-6.871-31.183c-0.737-3.181,0.214-4.722,3.386-5.209c3.075-0.473,5.788-1.152,6.699,3.343
	c4.264,21.028,8.783,42.003,13.116,63.017c0.386,1.87,2.342,4.7-0.798,5.564c-3.364,0.926-6.865,3.558-10.581-0.175
	c-10.183-10.229-20.605-20.217-30.964-30.27c-4.642-4.504-9.354-8.935-14.925-14.247c-0.335,5.84,1.352,10.463,2.267,15.084
	c2.293,11.579,4.992,23.078,7.441,34.628c0.545,2.569,1.382,5.211-2.942,5.819c-3.763,0.529-6.109,0.67-7.059-4.077
	c-4.271-21.367-8.892-42.666-13.405-63.985c-0.317-1.502-0.901-3.376,1.129-3.701c3.511-0.561,7.002-3.531,10.68,0.166
	c7.62,7.661,15.481,15.083,23.214,22.633c6.894,6.73,13.74,13.509,20.636,20.238
	C1419.948,1292.884,1420.623,1293.059,1422.267,1293.906z"/>
<path fill-rule="evenodd" clip-rule="evenodd" fill="#C6AD5E" d="M755.755,1336.472c-0.103,14.607-13.781,24.1-27.182,19.263
	c-5.686-2.052-5.414-2.066-5.101,3.812c0.581,10.917-2.443,21.434-4.082,32.102c-0.22,1.434-1.005,1.952-2.487,1.453
	c-3.611-1.216-7.289-6.94-6.837-10.945c0.876-7.768,2.288-15.476,3.541-23.17c1.865-11.452-4.682-17.603-12.419-23.519
	c-2.118-1.619-3.305-0.005-4.543,1.388c-5.415,6.093-10.984,12.056-16.19,18.321c-2.513,3.025-4.347,2.084-6.476-0.062
	c-1.967-1.983-4.913-3.18-1.472-6.955c14.865-16.311,29.38-32.939,44.044-49.433c1.368-1.539,2.884-3.033,5.025-1.032
	c10.057,9.399,21.313,17.524,30.217,28.138C754.389,1328.926,755.926,1332.658,755.755,1336.472z M733.861,1347.212
	c1.958-0.135,3.86-0.241,5.649-1.481c6.728-4.662,7.776-12.012,1.706-18.4c-5.471-5.757-11.707-10.789-17.612-16.133
	c-1.746-1.58-3.14-1.161-4.63,0.559c-3.694,4.267-7.53,8.412-11.307,12.606c-1.681,1.867-1.424,3.479,0.46,5.107
	c5.281,4.562,10.369,9.356,15.79,13.741C726.717,1345.476,729.809,1347.701,733.861,1347.212z"/>
<path fill-rule="evenodd" clip-rule="evenodd" fill="#C6AD5E" d="M1131.242,1420.883c13.055-0.427,24.141,4.966,35.738,8.27
	c3.206,0.913,3.587,1.846,0.988,4.519c-3.923,4.036-7.622,5.438-13.212,3.196c-6.767-2.713-13.886-4.643-20.974-6.427
	c-9.384-2.363-18.679,1.528-23.971,9.377c-1.455,2.159-0.023,3.329,1.154,4.729c5.136,6.107,10.047,12.42,15.449,18.279
	c3.215,3.488,0.99,5.015-1.387,7.065c-2.403,2.074-3.968,3.113-6.725-0.24c-13.71-16.678-27.725-33.107-41.77-49.507
	c-2.669-3.116-2.538-5.019,0.742-7.63c8.835-7.033,17.246-14.602,26.105-21.603c8.289-6.552,16.58-6.842,24.41-1.527
	c7.316,4.965,10.49,13.165,7.991,21.794C1134.882,1414.294,1133.032,1417.136,1131.242,1420.883z M1116.004,1396.007
	c-2.507,0.004-4.588,0.632-6.45,1.759c-7.712,4.667-14.01,11.104-20.886,16.817c-1.631,1.355-0.936,2.508,0.155,3.782
	c3.773,4.411,7.511,8.852,11.228,13.31c1.229,1.473,2.635,2.242,4.24,0.808c6.543-5.848,13.976-10.745,19.561-17.603
	c2.863-3.517,3.951-7.601,1.571-12.07C1123.308,1398.84,1120.271,1396.4,1116.004,1396.007z"/>
<path fill-rule="evenodd" clip-rule="evenodd" fill="#C6AD5E" d="M640.547,1324.198c9.71-0.224,12.036-2.263,14.137-11.784
	c0.535-2.423-0.923-2.96-2.438-3.553c-4.326-1.693-8.647-3.429-13.067-4.842c-3.156-1.009-3.811-2.619-2.605-5.606
	c1.106-2.742,2.077-4.777,5.732-3.301c7.395,2.987,14.854,5.835,22.396,8.422c2.584,0.886,3.108,2.244,2.32,4.413
	c-2.555,7.033-5.233,14.021-7.82,21.043c-0.665,1.803-2.118,2.495-3.763,2.926c-18.502,4.851-38.211,0.374-49.236-15.239
	c-8.852-12.536-7.208-25.922-1.081-38.882c5.876-12.426,15.159-21.097,29.704-21.919c13.39-0.757,32.866,6.861,36.855,21.777
	c0.555,2.073,1.053,4.228,1.094,6.354c0.047,2.42,1.173,5.791-3.149,5.938c-3.612,0.122-6.796,0.23-6.783-5.227
	c0.021-8.771-5.706-14.004-13.13-17.133c-8.511-3.587-17.105-4.065-25.089,1.875c-10.419,7.751-16.74,26.143-12.692,37.104
	C615.924,1317.377,627.479,1324.498,640.547,1324.198z"/>
<path fill-rule="evenodd" clip-rule="evenodd" fill="#C6AD5E" d="M860.128,1450.741c-0.238,12.688-8.656,21.916-18.585,30.173
	c-4.249,3.534-9.184,5.954-14.471,7.6c-12.066,3.756-21.911-0.413-30.273-8.917c-6.168-6.271-11.905-12.966-17.935-19.376
	c-2.053-2.183-1.858-3.641,0.368-5.666c16.333-14.859,32.573-29.82,48.791-44.806c2.331-2.154,4.046-2.123,6.16,0.36
	c6.557,7.704,13.966,14.652,20.148,22.702C858.112,1437.736,860.187,1443.188,860.128,1450.741z M850.006,1448.153
	c0.41-4.315-1.621-7.943-4.335-11.181c-3.733-4.452-7.777-8.645-11.501-13.105c-1.993-2.387-3.57-2.198-5.703-0.227
	c-11.827,10.933-23.725,21.788-35.603,32.666c-1.708,1.564-2.322,2.982-0.329,4.986c4.21,4.232,8.034,8.859,12.342,12.985
	c5.987,5.734,13.086,7.188,20.725,3.711c9.633-4.385,17.182-11.16,22.295-20.544
	C849.462,1454.574,850.133,1451.557,850.006,1448.153z"/>
<path fill-rule="evenodd" clip-rule="evenodd" fill="#C6AD5E" d="M1353.19,1307.301c-0.015,16.436-11.236,30.295-26.497,33.756
	c-21.075,4.779-35.615-7.036-41.61-20.878c-5.102-11.779-7.127-23.81-0.846-36.071c11.25-21.96,42.937-25.458,58.313-6.229
	C1349.395,1286.437,1353.239,1296.197,1353.19,1307.301z M1318.444,1333.111c12.475-0.051,22.832-8.873,24.253-21.232
	c1.176-10.225-2.258-19.394-8.36-27.416c-10.179-13.381-29.173-13.065-39.248,0.372c-6.343,8.459-4.88,17.431-2.058,26.611
	C1297.08,1324.618,1306.995,1333.158,1318.444,1333.111z"/>
<path fill-rule="evenodd" clip-rule="evenodd" fill="#C6AD5E" d="M876.014,1544.296c-14.222-0.697-25.228-7.016-31.847-19.657
	c-6.936-13.247-4.501-26.115,3.668-38.084c5.057-7.409,11.508-13.418,20.089-16.489c14.862-5.319,30.057-0.438,40.361,12.64
	c9.036,11.468,9.35,27.57,0.552,40.998C901.102,1535.512,891.007,1543.74,876.014,1544.296z M849.984,1510.265
	c-0.034,16.303,16.317,28.473,31.699,23.052c12.17-4.289,19.344-13.837,22.628-25.917c3.661-13.465-5.379-26.776-19.137-29.342
	C869.485,1475.133,850.021,1492.948,849.984,1510.265z"/>
<path fill-rule="evenodd" clip-rule="evenodd" fill="#C6AD5E" d="M1096.4,1484.66c-0.938,15.155-8.297,26.073-21.736,32.229
	c-13.594,6.228-26.533,3.325-37.692-6.072c-11.521-9.702-18.625-21.721-15.856-37.6c4.104-23.526,31.73-36.27,52.206-24.052
	C1086.814,1457.218,1095.35,1468.577,1096.4,1484.66z M1061.56,1510.34c16.499,0.471,28.928-16.115,23.548-31.706
	c-3.404-9.867-10.324-16.913-19.456-21.649c-8.535-4.427-17.064-4.006-24.916,1.742c-7.667,5.613-11.399,13.323-10.424,22.859
	C1031.379,1492.018,1047.095,1510.799,1061.56,1510.34z"/>
<path fill-rule="evenodd" clip-rule="evenodd" fill="#C6AD5E" d="M466.193,1243.369c12.26-0.393,21.1,4.915,24.079,14.064
	c0.473,1.452,1.914,3.232-0.886,3.918c-2.671,0.654-5.537,3.58-8.075,0.375c-7.729-9.759-16.001-11.829-27.161-6.16
	c-4.193,2.13-7.491,5.353-6.871,10.568c0.608,5.112,4.453,7.02,9.028,7.895c6.259,1.197,12.612,0.952,18.927,1.282
	c3.18,0.166,6.291,0.582,9.362,1.421c7.854,2.146,13.404,6.609,14.886,14.998c1.492,8.449-0.976,15.828-7.852,20.82
	c-10.912,7.922-23.211,9.804-36.054,5.515c-6.662-2.225-10.952-7.342-13.561-13.832c-0.688-1.71-1.797-3.808,0.793-4.548
	c2.588-0.741,5.89-3.68,7.998,0.024c2.854,5.016,6.156,9.11,12.045,10.304c7.104,1.439,13.912,0.53,20.314-2.975
	c5.035-2.755,7.682-7.267,6.752-12.217c-1-5.328-4.765-7.324-9.855-8.302c-8.232-1.581-16.605-1.042-24.854-2.316
	c-9.884-1.526-16.235-6.91-17.518-15.632c-1.307-8.885,3.617-17.551,12.268-21.34c2.58-1.131,5.25-2.176,7.985-2.801
	C460.85,1243.768,463.88,1243.647,466.193,1243.369z"/>
<path fill-rule="evenodd" clip-rule="evenodd" fill="#C6AD5E" d="M1252.711,1303.254c-2.077,12.962-4.419,27.591-6.768,42.218
	c-1.081,6.735-2.189,13.468-3.254,20.206c-0.176,1.111-0.798,2.423,0.26,3.303c1.346,1.119,2.499-0.136,3.577-0.75
	c10.538-6.007,21.108-11.961,31.537-18.152c3.377-2.006,5.15-1.571,7.018,1.983c1.611,3.069,0.755,4.36-1.89,5.864
	c-14.579,8.292-29.095,16.697-43.618,25.087c-1.318,0.763-2.903,1.957-4.063,0.692c-2.342-2.553-4.486-5.432-4.001-9.261
	c0.564-4.455,1.18-8.906,1.89-13.341c2.657-16.59,5.362-33.172,8.047-49.758c0.208-1.284,1.007-2.881-0.188-3.756
	c-1.34-0.982-2.39,0.665-3.476,1.278c-8.972,5.069-17.968,10.102-26.827,15.363c-3.075,1.826-4.625,1.146-6.3-1.832
	c-1.646-2.926-1.549-4.542,1.617-6.31c12.188-6.805,24.21-13.909,36.358-20.789c2.026-1.148,4.228-4.082,6.57-2.024
	C1251.43,1295.236,1253.45,1298.033,1252.711,1303.254z"/>
<path fill-rule="evenodd" clip-rule="evenodd" fill="#C6AD5E" d="M750.329,1396.992c-4.12,1.716-8.108,3.369-12.09,5.037
	c-2.147,0.898-4.316,1.753-6.415,2.755c-1.719,0.82-3.074,0.616-4.54-0.651c-5.933-5.133-5.725-6.118,1.626-9.086
	c20.349-8.214,40.67-16.5,60.986-24.797c3.35-1.368,6-2.31,9.242,1.199c3.292,3.563,3.554,6.243,1.568,10.448
	c-9.581,20.282-18.805,40.731-28.351,61.029c-0.818,1.738-0.742,5.302-3.972,4.647c-3.461-0.7-6.748-7.329-5.444-10.095
	c2.409-5.106,4.821-10.213,7.352-15.26c1.001-1.997,1.209-3.738-0.417-5.467c-5.692-6.05-11.354-12.13-17.077-18.151
	C752.151,1397.922,751.19,1397.541,750.329,1396.992z M791.587,1379.377c-10.413,4.404-19.38,8.232-28.377,11.985
	c-3.135,1.307-3.137,2.722-0.744,4.955c2.536,2.366,4.779,5.048,7.129,7.611c6.236,6.802,6.276,6.829,10.478-1.436
	C783.79,1395.183,787.391,1387.813,791.587,1379.377z"/>
<path fill-rule="evenodd" clip-rule="evenodd" fill="#C6AD5E" d="M1155.652,1352.31c0.046-4.238,7.766-8.492,11.434-6.155
	c18.904,12.05,37.761,24.174,56.632,36.273c0.42,0.27,0.895,0.506,1.215,0.87c1.65,1.876,6.479,1.598,4.937,5.426
	c-1.648,4.09-8.217,5.253-11.799,2.842c-3.581-2.41-7.482-4.451-10.689-7.281c-3.816-3.369-6.844-2.48-10.386,0.202
	c-5.29,4.006-10.725,7.83-16.215,11.561c-2.53,1.72-3.537,3.425-2.464,6.627c1.687,5.031,2.854,10.241,4.133,15.401
	c0.763,3.08-3.788,8.818-6.813,8.725c-1.495-0.047-1.905-1.313-2.171-2.373c-5.872-23.373-11.695-46.758-17.517-70.144
	C1155.788,1353.641,1155.747,1352.968,1155.652,1352.31z M1165.426,1355.922c3.114,10.979,6.098,20.615,8.233,30.477
	c0.511,2.357,1.739,3.271,4.198,1.38c4.474-3.44,9.157-6.617,13.839-9.776c2.301-1.553,1.894-2.827-0.052-4.16
	C1183.312,1368.132,1174.966,1362.439,1165.426,1355.922z"/>
<path fill-rule="evenodd" clip-rule="evenodd" fill="#C6AD5E" d="M549.114,1239.01c5.971-1.484,7.682,2.459,9.242,7.091
	c7.055,20.954,14.293,41.845,21.361,62.794c0.636,1.884,2.982,4.372-0.23,5.925c-3.159,1.527-9.088-0.297-10.018-2.893
	c-1.905-5.319-3.719-10.682-5.267-16.114c-0.814-2.855-2.352-4.167-5.242-4.32c-7.812-0.414-15.621-0.878-23.425-1.408
	c-2.952-0.201-4.099,1.664-5.048,3.924c-2.058,4.901-4.092,9.813-6.208,14.69c-1.188,2.738-8.747,4.309-10.753,2.206
	c-1.327-1.391-0.164-2.748,0.435-4.077c8.81-19.551,17.61-39.105,26.413-58.659c0.887-1.971,1.891-3.898,2.644-5.919
	C544.099,1239.345,545.729,1237.629,549.114,1239.01z M549.915,1250.156c-4.211,9.732-8.639,18.813-12.66,28.068
	c-1.037,2.387-0.167,3.412,2.251,3.568c5.633,0.365,11.265,0.75,16.897,1.125c2.486,0.166,3.33-0.875,2.574-3.311
	C555.932,1269.798,552.932,1259.975,549.915,1250.156z"/>
<path fill-rule="evenodd" clip-rule="evenodd" fill="#C6AD5E" d="M998.442,1567.192c-5.494,0.389-11.212-1.886-16.042-5.94
	c-13.659-11.466-20.814-25.996-17.957-43.989c2.186-13.762,11.828-21.569,24.489-25.688c10.688-3.476,20.411-1.242,28.655,6.54
	c1.393,1.313,4.345,3.027,1.442,5.009c-2.411,1.646-4.721,6.568-8.66,2.502c-8.109-8.371-17.224-7.095-24.105-3.251
	c-9.522,5.317-13.501,13.171-11.966,23.553c1.375,9.302,5.019,17.586,11.212,24.64c6.396,7.284,15.435,9.239,24.538,5.597
	c9.121-3.65,13.777-10.677,13.53-20.602c-0.066-2.687-0.802-5.263,3.392-5.725c6.484-0.714,7.617,0.619,7.131,7.743
	C1032.71,1557.971,1014.638,1567.164,998.442,1567.192z"/>
<path fill-rule="evenodd" clip-rule="evenodd" fill="#252E62" d="M947.588,903.108c0.314,3.695-2.463,6.934-0.551,8.564
	c2.435,2.076,5.037-1.244,7.509-2.253c4.46-1.821,8.742-4.075,13.115-6.112c1.372-0.639,3.143-1.167,3.391-2.683
	c0.284-1.741-1.634-2.233-2.854-3.029c-1.535-0.999-3.078-1.991-4.559-3.065c-1.354-0.982-3.006-2.069-1.604-4.012
	c1.253-1.735,2.644-0.549,3.897,0.269c2.507,1.632,5.214,3.034,7.461,4.969c3.049,2.626,5.784,2.578,8.978,0.375
	c1.758-1.213,3.84-1.978,5.82-2.841c1.343-0.585,2.599-0.602,3.257,1.11c0.552,1.435-0.185,2.189-1.313,2.799
	c-0.146,0.079-0.287,0.169-0.429,0.257c-7.086,4.398-7.157,4.51,0.036,9.069c2.874,1.822,5.298,5.18,9.764,2.751
	c5.819-3.164,6.659-10.514,1.258-14.267c-1.492-1.037-3.539-1.918-2.311-4.199c1.331-2.471,2.852-0.486,4.104,0.274
	c2.354,1.428,3.354,0.474,3.733-1.854c2.191-13.473,5.015-26.882,6.385-40.438c1.403-13.885-6.036-24.475-15.59-33.653
	c-7.378-7.087-15.998-12.417-25.051-17.074c-2.167-1.115-4.493-1.954-6.508-4.03c3.923-2.089,8.019-2.784,12.022-3.671
	c39.709-8.8,76.578-2.187,110.863,19.861c17.312,11.133,21.37,27.374,19.749,46.306c-0.884,10.323-2.91,20.428-5.745,30.383
	c-0.411,1.44-0.796,2.893-1.091,4.36c-0.194,0.97-0.379,2.198,0.781,2.605c1.414,0.497,1.403-1.011,1.878-1.762
	c3.551-5.617,9.396-5.712,12.988-0.068c0.793,1.245,1.582,1.766,2.975,2.188c6.478,1.96,8.212,7.53,4.031,12.916
	c-0.908,1.17-1.132,2.113-1.061,3.56c0.331,6.742-4.031,9.812-10.176,7.303c-0.935-0.382-1.783-0.612-2.861-0.389
	c-9.167,1.9-10.159,1.312-13.043-8.152c-1.898,7.067-3.963,13.301-5.217,19.694c-3.771,19.217-13.888,35.168-25.657,50.188
	c-21.482,27.414-47.293,50.382-74.629,71.752c-2.799,2.188-4.416,1.842-6.513-0.82c-6.375-8.092-12.9-16.069-19.479-23.999
	c-1.797-2.165-2.096-4.185-1.212-6.856c3.008-9.099,7.563-17.436,13.052-25.15c8.212-11.542,12.082-24.766,15.624-38.095
	c2.859-10.76,4.907-21.736,7.302-32.619c0.457-2.079,1.318-4.144-1.113-5.816c-2.186-1.503-4.142-1.594-6.5-0.401
	c-5.189,2.624-10.469,5.073-15.74,7.532c-1.235,0.576-2.753,1.997-3.754-0.234c-0.932-2.078,0.45-2.877,2.16-3.661
	c4.079-1.869,8.04-3.995,12.105-5.896c3.267-1.527,3.024-3.071,0.268-4.858c-2.649-1.718-5.368-3.345-7.896-5.227
	c-1.925-1.433-3.599-1.127-5.548-0.165c-7.31,3.609-14.747,6.97-21.956,10.766c-2.462,1.296-4.274,1.1-6.27-0.406
	c-0.529-0.4-0.978-0.907-1.5-1.317c-2.304-1.805-7.32-3.29-6.607-5.105C939.077,905.427,943.728,904.815,947.588,903.108z
	 M1070.252,883.799c-2.776-0.533-5.105,0.796-6.675,3.499c-0.784,1.349-1.699,2.244-3.237,2.836
	c-7.256,2.795-8.906,7.979-4.589,14.273c0.806,1.175,1.08,2.215,1.052,3.647c-0.15,7.485,4.738,11.158,11.93,8.943
	c1.594-0.491,2.815-0.301,4.264,0.31c2.601,1.096,4.953,1.058,7.303-1.146c5.635-5.286,5.86-12.493,6.727-19.246
	c0.455-3.547-11.433-12.9-15.344-13.114C1071.35,883.783,1071.017,883.799,1070.252,883.799z M1028.614,885.694
	c-2.459-0.334-5.04,0.828-6.523,3.897c-0.711,1.47-1.562,2.386-3.289,2.585c-4.286,0.494-5.843,3.538-6.077,7.316
	c-0.352,5.635,4.274,10.082,4.041,15.759c-0.013,0.326,0.667,0.692,1.041,1.021c2.784,2.437,16.958,3.845,20.167,1.998
	c0.284-0.164,0.514-0.418,0.783-0.61c2.942-2.086,7.829-15.466,6.821-18.944c-2.073-7.154-9.8-8.237-14.143-12.979
	C1031.134,885.407,1030.157,885.694,1028.614,885.694z"/>
<path fill-rule="evenodd" clip-rule="evenodd" fill="#252E62" d="M890.271,653.693c0.093,4.178-1.422,7.885-2.578,11.625
	c-1.233,3.989,0.019,5.283,4.04,4.45c2.768-0.573,5.604-0.81,8.388-1.313c2.577-0.464,3.97,0.147,3.271,3.082
	c-0.116,0.485-0.193,0.981-0.273,1.474c-1.543,9.501-1.591,9.631,7.258,12.945c2.753,1.031,3.173,2.576,2.453,4.93
	c-0.729,2.385-1.604,4.726-2.403,7.089c-1.197,3.537-1.036,6.146,3.683,6.539c3.575,0.298,4.888,1.898,1.809,4.905
	c-0.473,0.462-0.761,1.13-1.267,1.539c-5.68,4.59-6.439,9.899-2.669,16.113c1.568,2.586,0.813,5.145-0.095,8.05
	c-4.664,14.938-16.481,25.174-24.606,37.809c-3.261,5.069-10.331,5.955-16.153,6.256c-12.411,0.643-10.071,0.83-10.175-9.265
	c-0.136-13.159,0.12-26.322-0.12-39.478c-0.082-4.452,1.468-5.956,5.794-5.631c3.975,0.299,7.993-0.016,11.989,0.075
	c3,0.067,4.18-1.299,4.126-4.232c-0.258-14.258,1.801-12.143-11.561-12.296c-11.549-0.133-10.146,1.06-10.251-10.086
	c-0.096-10.09,1.136-9.181-9.008-9.21c-11.059-0.033-11.059-0.006-11.068,11.087c-0.006,8.181-0.006,8.183-8.157,8.192
	c-3.165,0.003-6.33-0.012-9.495,0.006c-0.998,0.005-2.284-0.295-2.946,0.201c-4.698,3.523-1.559,8.544-2.183,12.859
	c-0.419,2.899,1.742,3.522,4.22,3.489c4.664-0.062,9.331,0.056,13.992-0.057c3.016-0.073,4.634,0.809,4.61,4.221
	c-0.106,15.158-0.075,30.318-0.033,45.477c0.007,2.731-0.88,4.323-3.821,3.391c-12.242-3.883-25.4-5.931-33.632-17.647
	c-2.338-3.328-2.395-4.041,1.783-5.049c11.496-2.776,11.512-2.788,4.329-11.962c-6.865-8.768-13.676-17.58-20.707-26.213
	c-2.27-2.786-2.685-4.908,0.653-6.828c5.084-2.923,7.036-7.459,7.52-13.105c0.412-4.796,1.498-9.53,2.121-14.314
	c0.39-2.991,1.79-4.049,4.743-3.352c3.882,0.917,7.851,1.497,11.688,2.56c3.799,1.052,4.838-0.396,4.516-3.94
	c-0.497-5.47-0.782-10.959-1.269-16.431c-0.25-2.81,0.876-4.03,3.67-3.853c1.494,0.095,3.043-0.157,4.485,0.143
	c4.942,1.025,9.757,2.167,12.614-3.857c0.538-1.133,1.755-1.141,2.598,0.424c1.333,2.473,3.243,4.656,4.415,7.19
	c1.463,3.166,2.846,2.546,4.725,0.53c3.285-3.525,6.675-6.952,9.952-10.485c2.095-2.26,3.319-1.631,4.05,1.042
	c0.745,2.727,1.419,5.473,2.17,8.197c1.489,5.397,1.912,5.58,6.499,2.583c3.753-2.452,7.434-5.014,11.181-7.475
	C886.627,655.11,887.99,653.821,890.271,653.693z"/>
<path fill-rule="evenodd" clip-rule="evenodd" fill="#252E62" d="M1002.775,706.286c0.025-12.364,0.025-12.364,10.321-8.088
	c0.154,0.064,0.303,0.139,0.456,0.204c10.186,4.351,10.15,4.34,13.238-6.509c0.862-3.031,2.033-5.973,3-8.976
	c1.152-3.58,2.955-3.222,4.764-0.659c3.258,4.615,6.471,9.274,9.432,14.082c1.68,2.727,2.956,2.521,4.882,0.366
	c2.765-3.093,5.614-6.125,8.613-8.989c1.991-1.9,3.888-1.709,4.964,1.159c0.058,0.155,0.172,0.297,0.2,0.456
	c1.385,7.794,5.351,12.044,13.947,12.075c3.628,0.013,6.572,3.217,6.233,7.702c-0.279,3.708,0.617,6.295,5.002,6.22
	c0.614-0.01,1.608,0.179,1.798,0.576c2.491,5.222,5.725,10.753,4.625,16.389c-0.936,4.794-3.792,9.657-7.811,13.082
	c-5.149,4.388-11.153,7.726-14.95,13.706c-1.825,2.876-5.849,1.88-8.643,3.319c-1.313,0.676-2.96,0.716-4.245,1.425
	c-13.632,7.519-25.61,0.679-37.841-4.213c-2.252-0.901-3.355-2.599-4.074-4.718c-3.949-11.642-7.795-23.32-11.89-34.911
	C1003.097,715.167,1002.399,710.324,1002.775,706.286z"/>
<path fill-rule="evenodd" clip-rule="evenodd" fill="#252E62" d="M1144.664,888.362c1.826-0.092,2.861-0.415,3.093-0.115
	c3.525,4.55,10.289,5.305,12.769,11.165c1.203,2.842,0.956,5.069-1.003,7.306c-0.644,0.734-1.76,1.839-1.567,2.399
	c2.011,5.869-5.076,6.13-6.071,10.071c-0.027,0.106-0.344,0.262-0.42,0.216c-5.033-2.994-11.248,2.863-16.011-2.133
	c-0.226-0.236-0.561-0.367-0.798-0.596c-2.135-2.055-5.021-15.86-3.908-18.632c0.062-0.154,0.081-0.326,0.152-0.475
	C1131.775,895.733,1143.729,888.365,1144.664,888.362z"/>
<path fill-rule="evenodd" clip-rule="evenodd" fill="#252E62" d="M890.077,908.959c-0.204,1.173-1.214,1.509-2.091,1.931
	c-5.39,2.596-10.789,5.17-16.189,7.741c-4.213,2.006-6.26-1.925-9.162-3.43c-1.688-0.875-4.3-1.542-4.081-3.762
	c0.185-1.872,2.809-2.024,4.405-2.836c4.586-2.336,9.259-4.511,13.764-6.993c1.601-0.882,2.806-0.723,4.125,0.151
	c2.631,1.743,5.226,3.539,7.848,5.297C889.398,907.529,890.087,907.98,890.077,908.959z"/>
<path fill-rule="evenodd" clip-rule="evenodd" fill="#252E62" d="M1219.819,456.775c4.175,11.208,8.139,21.914,12.162,32.597
	c0.817,2.172-0.253,2.713-2.063,2.719c-6.654,0.021-13.309,0.059-19.961-0.005c-3.873-0.038-2.094-2.424-1.492-4.095
	C1212.117,477.84,1215.833,467.713,1219.819,456.775z"/>
<path fill-rule="evenodd" clip-rule="evenodd" fill="#252E62" d="M733.861,1347.212c-4.052,0.489-7.145-1.736-9.944-4.001
	c-5.421-4.385-10.509-9.18-15.79-13.741c-1.885-1.628-2.142-3.24-0.46-5.107c3.777-4.194,7.613-8.34,11.307-12.606
	c1.49-1.72,2.884-2.139,4.63-0.559c5.905,5.344,12.141,10.376,17.612,16.133c6.071,6.389,5.022,13.738-1.706,18.4
	C737.721,1346.971,735.819,1347.077,733.861,1347.212z"/>
<path fill-rule="evenodd" clip-rule="evenodd" fill="#252E62" d="M1116.004,1396.007c4.268,0.394,7.304,2.833,9.419,6.803
	c2.38,4.47,1.292,8.554-1.571,12.07c-5.585,6.857-13.018,11.755-19.561,17.603c-1.605,1.435-3.012,0.665-4.24-0.808
	c-3.717-4.458-7.454-8.898-11.228-13.31c-1.091-1.274-1.786-2.427-0.155-3.782c6.876-5.714,13.174-12.15,20.886-16.817
	C1111.416,1396.639,1113.497,1396.011,1116.004,1396.007z"/>
<path fill-rule="evenodd" clip-rule="evenodd" fill="#252E62" d="M850.006,1448.153c0.127,3.403-0.543,6.421-2.108,9.292
	c-5.113,9.384-12.662,16.159-22.295,20.544c-7.639,3.478-14.738,2.023-20.725-3.711c-4.308-4.126-8.132-8.753-12.342-12.985
	c-1.993-2.004-1.38-3.422,0.329-4.986c11.877-10.878,23.775-21.733,35.603-32.666c2.133-1.972,3.71-2.16,5.703,0.227
	c3.724,4.461,7.768,8.653,11.501,13.105C848.385,1440.21,850.416,1443.838,850.006,1448.153z"/>
<path fill-rule="evenodd" clip-rule="evenodd" fill="#252E62" d="M1318.444,1333.111c-11.449,0.047-21.364-8.493-25.413-21.665
	c-2.822-9.181-4.285-18.152,2.058-26.611c10.075-13.438,29.069-13.753,39.248-0.372c6.103,8.022,9.536,17.191,8.36,27.416
	C1341.276,1324.238,1330.919,1333.061,1318.444,1333.111z"/>
<path fill-rule="evenodd" clip-rule="evenodd" fill="#252E62" d="M849.984,1510.265c0.036-17.316,19.501-35.132,35.19-32.207
	c13.758,2.565,22.798,15.877,19.137,29.342c-3.284,12.08-10.458,21.628-22.628,25.917
	C866.301,1538.737,849.951,1526.567,849.984,1510.265z"/>
<path fill-rule="evenodd" clip-rule="evenodd" fill="#252E62" d="M1061.56,1510.34c-14.465,0.459-30.181-18.322-31.248-28.754
	c-0.976-9.536,2.757-17.246,10.424-22.859c7.852-5.748,16.381-6.169,24.916-1.742c9.132,4.736,16.052,11.782,19.456,21.649
	C1090.487,1494.225,1078.059,1510.811,1061.56,1510.34z"/>
<path fill-rule="evenodd" clip-rule="evenodd" fill="#252E62" d="M791.587,1379.377c-4.196,8.436-7.797,15.806-11.514,23.116
	c-4.202,8.265-4.242,8.237-10.478,1.436c-2.35-2.563-4.594-5.245-7.129-7.611c-2.393-2.233-2.391-3.648,0.744-4.955
	C772.207,1387.609,781.174,1383.781,791.587,1379.377z"/>
<path fill-rule="evenodd" clip-rule="evenodd" fill="#252E62" d="M1165.426,1355.922c9.54,6.518,17.886,12.21,26.219,17.92
	c1.945,1.333,2.353,2.607,0.052,4.16c-4.682,3.159-9.365,6.336-13.839,9.776c-2.459,1.892-3.688,0.978-4.198-1.38
	C1171.523,1376.537,1168.54,1366.9,1165.426,1355.922z"/>
<path fill-rule="evenodd" clip-rule="evenodd" fill="#252E62" d="M549.915,1250.156c3.017,9.818,6.018,19.642,9.063,29.451
	c0.756,2.436-0.088,3.477-2.574,3.311c-5.632-0.375-11.264-0.76-16.897-1.125c-2.417-0.156-3.288-1.182-2.251-3.568
	C541.275,1268.97,545.703,1259.889,549.915,1250.156z"/>
<path fill-rule="evenodd" clip-rule="evenodd" fill="#C6AD5E" d="M1070.252,883.799c0.765,0,1.098-0.016,1.43,0.002
	c3.911,0.213,15.799,9.567,15.344,13.114c-0.866,6.753-1.092,13.96-6.727,19.246c-2.35,2.203-4.702,2.241-7.303,1.146
	c-1.448-0.611-2.67-0.801-4.264-0.31c-7.191,2.215-12.08-1.458-11.93-8.943c0.028-1.432-0.246-2.472-1.052-3.647
	c-4.317-6.294-2.667-11.478,4.589-14.273c1.538-0.592,2.453-1.487,3.237-2.836C1065.146,884.595,1067.476,883.266,1070.252,883.799z
	"/>
<path fill-rule="evenodd" clip-rule="evenodd" fill="#C6AD5E" d="M1028.614,885.694c1.543,0,2.52-0.287,2.821,0.043
	c4.343,4.742,12.069,5.826,14.143,12.979c1.008,3.478-3.879,16.857-6.821,18.944c-0.27,0.191-0.499,0.446-0.783,0.61
	c-3.209,1.847-17.383,0.438-20.167-1.998c-0.374-0.328-1.054-0.694-1.041-1.021c0.233-5.677-4.393-10.124-4.041-15.759
	c0.234-3.778,1.791-6.822,6.077-7.316c1.728-0.199,2.578-1.115,3.289-2.585C1023.574,886.522,1026.155,885.36,1028.614,885.694z"/>
</svg>
